<svg width="25" height="24" viewBox="0 0 25 24" fill="none" xmlns="http://www.w3.org/2000/svg">
<path d="M4.34772 4.29289C3.9572 4.68342 3.9572 5.31658 4.34772 5.70711L10.641 12.0004L4.3477 18.2936C3.95718 18.6841 3.95718 19.3173 4.3477 19.7078C4.73823 20.0984 5.37139 20.0984 5.76192 19.7078L12.0552 13.4146L18.3484 19.7078C18.739 20.0983 19.3721 20.0983 19.7626 19.7078C20.1532 19.3173 20.1532 18.6841 19.7626 18.2936L13.4694 12.0004L19.7626 5.70713C20.1531 5.31661 20.1531 4.68344 19.7626 4.29292C19.3721 3.90239 18.7389 3.90239 18.3484 4.29292L12.0552 10.5861L5.76193 4.29289C5.37141 3.90237 4.73825 3.90237 4.34772 4.29289Z" fill="#F7F7F7"/>
</svg>
