<svg width="109" height="109" viewBox="0 0 109 109" fill="none" xmlns="http://www.w3.org/2000/svg">
<path d="M99.8716 41.8287V15.1237C99.8716 12.8075 97.1466 11.7175 95.6478 13.3525L86.6553 22.345C77.5266 13.2162 64.4466 8.03874 50.2766 9.26499C29.1578 11.1725 11.7178 28.2037 9.40157 49.3225C6.40407 76.7087 27.6591 99.8712 54.5003 99.8712C77.6628 99.8712 96.7378 82.5675 99.5991 60.0862C100.008 57.0887 97.5553 54.5 94.5578 54.5C91.9691 54.5 89.9253 56.4075 89.6528 58.86C87.3366 76.4362 72.2128 90.0612 53.9553 89.7887C35.2891 89.5162 19.4841 73.7112 19.0753 54.9087C18.8028 35.2887 34.8803 19.2112 54.5003 19.2112C64.1741 19.2112 73.0303 23.1625 79.4341 29.5662L68.9428 40.0575C67.3078 41.6925 68.3978 44.4175 70.7141 44.4175H97.4191C98.7816 44.4175 99.8716 43.3275 99.8716 41.8287Z" fill="#FFFFFF"/>
<path d="M44.9629 68.3975L44.6904 43.4638C44.6904 41.0113 47.2792 39.3763 49.4592 40.7388L70.8504 53.1375C72.8942 54.3638 72.8942 57.3613 70.8504 58.5875L49.8679 71.1225C47.6879 72.3488 45.0992 70.85 44.9629 68.3975Z" fill="#FFFFFF"/>
</svg>
