<?xml version="1.0" encoding="UTF-8"?>
<svg width="130px" height="50px" viewBox="0 0 130 50" version="1.1" xmlns="http://www.w3.org/2000/svg" xmlns:xlink="http://www.w3.org/1999/xlink">
    <!-- Generator: Sketch 51.3 (57544) - http://www.bohemiancoding.com/sketch -->
    <title>Group 21</title>
    <desc>Created with Sketch.</desc>
    <defs></defs>
    <g id="Home-Copy" stroke="none" stroke-width="1" fill="none" fill-rule="evenodd">
        <g id="Home_Search_" transform="translate(-758.000000, -605.000000)" fill="#CEE3F3">
            <g id="Group-18" transform="translate(659.000000, 605.000000)">
                <g id="Group-32" transform="translate(99.000000, 0.000000)">
                    <g id="Group-21">
                        <path d="M2,31 C2,40.390316 9.61028101,48 18.9998968,48 L107.000103,48 C116.385346,48 124,40.3868387 124,31 C124,21.609684 116.389719,14 107.000103,14 L18.9998968,14 C9.61465431,14 2,21.6131613 2,31 Z M0,31 C0,20.5065898 8.51208722,12 18.9998968,12 L107.000103,12 C117.493456,12 126,20.5042825 126,31 C126,41.4934102 117.487913,50 107.000103,50 L18.9998968,50 C8.50654354,50 0,41.4957175 0,31 Z" id="Active-Copy" fill-rule="nonzero"></path>
                        <path d="M85.4071758,15.7498458 C85.2466112,16.1308465 84.8764962,16.3603541 84.4873311,16.3603541 C84.3585166,16.3603541 84.2269806,16.3349541 84.0999804,16.2814326 C83.5919794,16.0673464 83.3543074,15.4822381 83.5693007,14.9742371 C84.9799107,11.6332233 87.5362444,8.90453209 90.7674937,7.29072172 C91.2618876,7.04307123 91.860603,7.24536449 92.1055321,7.7370369 C92.3522754,8.22961646 92.1527036,8.83014623 91.6592169,9.07598244 C88.8534184,10.477521 86.6336354,12.84789 85.4071758,15.7498458 Z M85.5169403,35.9800791 C81.6352683,32.5256722 79.332028,27.7667912 79.0299488,22.5788309 C78.7278696,17.3908705 80.4641445,12.3970391 83.9176443,8.51718132 C87.6051874,4.37243732 92.9038194,1.99571828 98.4555448,1.99571828 C103.224404,1.99571828 107.813649,3.74287891 111.378728,6.91607097 C119.39063,14.0480424 120.108181,26.3679742 112.978024,34.3798759 C109.290481,38.5228056 103.990942,40.8995247 98.4392162,40.8995247 C93.6703567,40.8995247 89.0811118,39.1514569 85.5169403,35.9800791 Z M116.377095,33.1715592 C122.094828,24.4339417 120.735018,12.572118 112.70588,5.42563228 C108.774315,1.92677528 103.713355,0 98.4555448,0 C92.3350397,0 86.493028,2.6216481 82.4272056,7.19002867 C78.6190123,11.4690301 76.704937,16.9744911 77.036952,22.6949454 C77.3707812,28.4135854 79.9107863,33.6614173 84.1897877,37.4705178 C88.1204456,40.9684677 93.1804985,42.8952429 98.4392162,42.8952429 C103.110104,42.8952429 107.616799,41.3648899 111.297992,38.6117058 L123.170701,49.1772198 C123.767603,49.7078994 124.537768,50 125.339684,50 C126.274043,50 127.163952,49.6026706 127.780811,48.908705 L128.384062,48.231975 C129.581493,46.8866795 129.460843,44.8174825 128.116454,43.6209587 L116.377095,33.1715592 Z" id="Fill-15"></path>
                        <rect id="Rectangle-2" fill-rule="nonzero" x="18" y="19" width="5" height="24" rx="2.5"></rect>
                    </g>
                </g>
            </g>
        </g>
    </g>
</svg>