<svg width="25" height="24" viewBox="0 0 25 24" fill="none" xmlns="http://www.w3.org/2000/svg">
<g opacity="0.65">
<path d="M6.492 10C5.392 10 4.492 10.9 4.492 12C4.492 13.1 5.392 14 6.492 14C7.592 14 8.492 13.1 8.492 12C8.492 10.9 7.592 10 6.492 10ZM18.492 10C17.392 10 16.492 10.9 16.492 12C16.492 13.1 17.392 14 18.492 14C19.592 14 20.492 13.1 20.492 12C20.492 10.9 19.592 10 18.492 10ZM12.492 10C11.392 10 10.492 10.9 10.492 12C10.492 13.1 11.392 14 12.492 14C13.592 14 14.492 13.1 14.492 12C14.492 10.9 13.592 10 12.492 10Z" fill="white"/>
</g>
</svg>
