<svg width="64" height="64" viewBox="0 0 64 64" fill="none" xmlns="http://www.w3.org/2000/svg">
    <g clip-path="url(#clip0)">
        <path d="M61.7466 37.0481C63.656 20.9761 60.8293 10.8294 55.7306 6.24007L55.7333 6.2374C47.504 -1.59993 19.712 -2.75993 9.86663 6.5894C5.4453 11.1627 3.88797 17.8747 3.7173 26.1841C3.54663 34.4961 3.34397 50.0667 17.8533 54.2907H17.8666L17.8533 60.7414C17.8533 60.7414 17.7546 63.3547 19.424 63.8801C21.3333 64.4987 22.1973 63.2854 28.136 56.1921C38.0666 57.0534 45.6933 55.0801 46.56 54.7921C48.5653 54.1201 59.912 52.6187 61.7466 37.0481ZM29.1146 51.6534C29.1146 51.6534 22.8293 59.4907 20.8746 61.5254C20.2346 62.1867 19.5333 62.1254 19.544 60.8134C19.544 59.9521 19.592 50.1041 19.592 50.1041C7.29063 46.5787 8.01597 33.3201 8.1493 26.3841C8.28263 19.4454 9.55197 13.7627 13.296 9.93607C21.9333 1.8374 46.2986 3.64807 52.5066 9.48273C60.096 16.2107 57.3946 35.2187 57.4106 35.8667C55.8506 48.8641 46.656 49.6881 44.9653 50.2507C44.2426 50.4907 37.536 52.2161 29.1146 51.6534Z" fill="#8E24AA"/>
        <path fill-rule="evenodd" clip-rule="evenodd" d="M29.1146 51.6535C29.1146 51.6535 22.8292 59.4908 20.8746 61.5255C20.2346 62.1868 19.5332 62.1255 19.5439 60.8135C19.5439 59.9521 19.5919 50.1041 19.5919 50.1041C7.7133 46.7 7.98142 34.2199 8.13393 27.121C8.13936 26.8683 8.14464 26.6225 8.14922 26.3841C8.28256 19.4455 9.55189 13.7628 13.2959 9.93615C21.9332 1.83748 46.2986 3.64815 52.5066 9.48281C59.4146 15.6068 57.7966 31.9052 57.4625 35.2709C57.4296 35.6026 57.4091 35.8087 57.4106 35.8668C56.0059 47.5696 48.4116 49.4033 45.6786 50.0632C45.3763 50.1362 45.1336 50.1948 44.9652 50.2508C44.2426 50.4908 37.5359 52.2162 29.1146 51.6535ZM41.3893 34.064C40.072 33.3014 38.7306 33.776 38.176 34.5254L37.016 36.0267C36.4266 36.7894 35.3253 36.688 35.3253 36.688C27.288 34.5627 25.1387 26.152 25.1387 26.152C25.1387 26.152 25.04 25.0134 25.776 24.4027L27.2267 23.2027C27.952 22.6267 28.4106 21.24 27.672 19.8774C26.1841 17.1891 25.0645 15.8289 24.3146 14.9177C24.0699 14.6204 23.8646 14.3709 23.6987 14.1387C22.9893 13.2507 21.9227 13.0507 20.8133 13.6507H20.7893C18.4827 15 15.9573 17.5254 16.7653 20.1254C17.0044 20.6007 17.2782 21.2564 17.6095 22.05C19.1892 25.8331 22.0775 32.7503 28.752 38.208C32.5466 41.3307 38.552 44.5307 41.1013 45.2694L41.1253 45.3067C43.6373 46.1441 46.08 43.52 47.384 41.144V41.1254C47.9626 39.9761 47.7706 38.888 46.9253 38.176C45.4266 36.7147 43.1653 35.1014 41.3893 34.064ZM39.056 25.8481C38.9227 23.0987 37.68 21.7601 35.1173 21.6107C34.08 21.5494 34.176 19.9361 35.2027 19.9974C38.5733 20.1841 40.4453 22.1841 40.616 25.7734C40.664 26.8481 39.104 26.9227 39.056 25.8481ZM43.0693 27.1814C43.0453 28.2427 44.616 28.2934 44.6293 27.2187C44.76 21.1681 41.0293 16.1841 34.0186 15.6587C32.992 15.5841 32.8853 17.1974 33.9093 17.2721C39.9893 17.7334 43.192 21.8827 43.0693 27.1814ZM32.592 13.0721C31.5654 13.0587 31.5654 11.4587 32.592 11.4587C41.4987 11.5201 48.6614 17.8827 48.7467 28.8561H48.7494C48.7627 29.9307 47.1894 29.9441 47.1894 28.8694C47.1174 18.6854 40.5574 13.1334 32.592 13.0721Z" fill="white"/>
    </g>
    <defs>
        <clipPath id="clip0">
            <path d="M0 0H64V64H0V0Z" fill="white"/>
        </clipPath>
    </defs>
</svg>
