<?xml version="1.0" encoding="UTF-8"?>
<svg xmlns="http://www.w3.org/2000/svg" xmlns:xlink="http://www.w3.org/1999/xlink" version="1.1" viewBox="0 0 23 16">
  <path fill="#FFF" stroke-width="1" d="M12 4.3a4 4 0 0 1 3 1.2 4 4 0 0 1 1.2 2.9 4 4 0 0 1-1.2 3 4 4 0 0 1-3 1.1 4 4 0 0 1-2.8-1.2 4 4 0 0 1-1.3-2.9 4 4 0 0 1 1.3-3A4 4 0 0 1 12 4.4zm.1 7.1c.9 0 1.6-.3 2.1-.9a3 3 0 0 0 .9-2.1c0-.8-.3-1.5-.9-2.1-.6-.6-1.3-.9-2.1-.9s-1.5.3-2.1.9c-.6.6-.9 1.3-.9 2 0 1 .3 1.6.9 2.2a3 3 0 0 0 2.1.9zM23 8.2v.5a11.4 11.4 0 0 1-4.6 5.4 12.1 12.1 0 0 1-12.8 0A11.9 11.9 0 0 1 1 8.8v-.1-.1-.1-.1-.1-.2a11.8 11.8 0 0 1 7.7-6.8A12 12 0 0 1 21 4.9 11.6 11.6 0 0 1 23 8v.2zM12 15a11.4 11.4 0 0 0 5.8-1.6A10.9 10.9 0 0 0 22 8.4a10.9 10.9 0 0 0-20 0 10.6 10.6 0 0 0 4.2 4.9 10.6 10.6 0 0 0 5.8 1.6z"/>
</svg>