<svg width="32" height="32" fill="none" xmlns="http://www.w3.org/2000/svg"><g filter="url(#a)"><path d="M28 0H4v28.26a2 2 0 0 0 2.366 1.966l20-3.727A2 2 0 0 0 28 24.533V0Z" fill="url(#b)"/></g><g clip-path="url(#c)"><path fill-rule="evenodd" clip-rule="evenodd" d="M20.353 12.981c-.14.216-.28.453-.397.69l-.052.111c-.053.11-.105.219-.158.364-.28.562-.513 1.144-.7 1.749-.14.431-.256.884-.326 1.36l-.07.453c-.044.283-.067.585-.089.87l-.004.058c-.023.172-.023.323-.023.474v.67c0 .107.005.22.011.334.006.113.012.227.012.335v.13c0 .085 0 .172-.023.258-.012.022-.018.043-.024.065a.29.29 0 0 1-.023.065.344.344 0 0 1-.093.15.714.714 0 0 1-.304.195.192.192 0 0 0-.046.01.19.19 0 0 1-.047.012h-4.991c-.117-.022-.186-.044-.256-.108a.213.213 0 0 0-.035-.044c-.018-.02-.035-.038-.035-.064 0-.022-.006-.043-.012-.065-.006-.022-.012-.043-.012-.065v-.734a8.358 8.358 0 0 1 .233-1.683c.047-.28.117-.561.21-.842.024-.065.047-.135.07-.205l.07-.205c.024-.065.053-.135.082-.205.03-.07.058-.14.082-.205.023-.108.07-.194.116-.28a2.82 2.82 0 0 1 .28-.519c.28-.431.583-.82.956-1.187.257-.259.537-.496.84-.733.055-.04.104-.081.151-.12.053-.043.103-.083.152-.118l.07-.065c-.21 0-.396-.021-.583-.043a3.197 3.197 0 0 1-.315-.054 3.198 3.198 0 0 0-.315-.054c-.21-.021-.42-.064-.63-.107a.724.724 0 0 0-.104-.022c-.035-.005-.07-.01-.105-.022a.724.724 0 0 0-.105-.021c-.035-.006-.07-.011-.105-.022-.093-.029-.187-.038-.28-.048a2.782 2.782 0 0 1-.14-.017h-.117c-.14 0-.28.022-.396.065-.07.022-.14.043-.187.087a.989.989 0 0 0-.163.129.583.583 0 0 0-.117.13.38.38 0 0 0-.076.117l-.017.034c-.07.107-.093.215-.116.323-.047.194-.07.367-.07.561a.41.41 0 0 1-.07.238.362.362 0 0 1-.187.13c-.047.02-.117.02-.186.02H10.86c-.21 0-.396-.085-.49-.236-.014-.014-.02-.027-.027-.046a.408.408 0 0 0-.019-.04c-.023-.066-.046-.13-.046-.217v-4.705c0-.108.023-.216.07-.302.011-.01.023-.027.034-.043.012-.016.024-.032.035-.043a.361.361 0 0 1 .187-.13.605.605 0 0 0 .033-.017c.028-.014.05-.026.084-.026.023-.021.07-.021.116-.021H11.747s.023.021.046.021c.047.022.07.043.094.086a.66.66 0 0 1 .116.152c.07.107.187.172.303.172.024 0 .041-.005.059-.01a.185.185 0 0 1 .058-.011c.082-.022.163-.049.245-.076a4.22 4.22 0 0 1 .245-.075c.163-.065.303-.108.466-.152.467-.129.933-.215 1.423-.258h.327c.14 0 .28 0 .42.021.14 0 .28.022.42.043.279.043.536.087.815.151.256.073.528.13.79.186l.143.03c.152.033.31.065.467.097l.466.097c.035 0 .07.006.105.011.035.006.07.011.105.011.023 0 .043.002.063.005.044.004.091.01.17-.005.07 0 .14.005.21.01.07.006.14.012.21.012h.047a1.099 1.099 0 0 0 .77-.303c0-.021.046-.043.046-.043l.047-.043a.57.57 0 0 1 .256-.13h.187a.57.57 0 0 1 .256.13c.117.086.21.173.327.28.046.055.099.103.151.152.053.048.105.097.152.15.093.087.117.238.07.368-.07.15-.14.28-.21.388-.12.158-.226.327-.33.49l-.113.18c-.28.453-.56.906-.816 1.359ZM8.272 14.794c-.21-.043-.42-.086-.653-.13a.803.803 0 0 0-.653.216.927.927 0 0 0-.233.475l-.008.05c-.02.13-.04.248-.04.382 0 .194-.116.302-.326.302h-.583c-.256 0-.443-.173-.443-.41v-3.582c0-.109.024-.217.117-.303a.44.44 0 0 1 .326-.13h.63c.07 0 .117.044.163.087a.464.464 0 0 1 .07.108c.094.108.187.15.327.13.116-.022.233-.066.35-.109a6.616 6.616 0 0 1 1.446-.302c.186-.021.396-.021.583 0v3.194c0 .087 0 .151.023.216-.023 0-.047-.005-.07-.01a18.386 18.386 0 0 1-1.026-.183Zm2.917 1.36h.256l.187.021c.21 0 .373-.021.536-.086-.163.475-.303.971-.396 1.489-.094.475-.14.95-.14 1.425 0 .172.006.34.011.507.006.167.012.334.012.507 0 .13 0 .259-.046.388a.49.49 0 0 1-.444.28H7.597a.67.67 0 0 1-.112-.011c-.028-.005-.054-.01-.074-.01-.164-.021-.28-.108-.28-.259v-.56c.023-.454.093-.864.186-1.296l.065-.247c.09-.348.18-.694.332-1.026a5.29 5.29 0 0 1 1.05-1.51c.155-.161.323-.297.495-.436l.18-.148c.21.583.747.972 1.447.972h.303Zm15.39-3.928-.49-.454a.419.419 0 0 0-.536 0 .333.333 0 0 1-.047.033.324.324 0 0 0-.046.032.743.743 0 0 1-.63.237c-.21 0-.42-.021-.63-.064-.49-.087-.956-.195-1.422-.303a5.842 5.842 0 0 0-.268-.053c-.088-.017-.175-.033-.269-.054a29.734 29.734 0 0 0-1.469 2.438 8.845 8.845 0 0 0-.326.67l.35.064c.326.065.652.13.956.173.07.01.145.016.221.021.076.006.152.011.222.022-.024.022-.047.043-.07.043a6.792 6.792 0 0 0-.863.734 5.29 5.29 0 0 0-1.05 1.51c-.15.333-.24.679-.331 1.027l-.065.247a7.9 7.9 0 0 0-.187 1.295v.561c0 .151.117.238.28.26.021 0 .047.004.075.009a.671.671 0 0 0 .112.012h3.568a.49.49 0 0 0 .443-.28 1.11 1.11 0 0 0 .047-.39c0-.172-.006-.34-.012-.506-.006-.168-.012-.335-.012-.508 0-.474.047-.95.14-1.424.164-.95.49-1.856.933-2.698.373-.712.817-1.403 1.26-2.072.053-.065.092-.143.129-.214l.034-.066c.07-.13.046-.238-.047-.303Z" fill="#fff"/></g><defs><linearGradient id="b" x1="16" y1="0" x2="16" y2="30.667" gradientUnits="userSpaceOnUse"><stop stop-color="#4F0DBB"/><stop offset="1" stop-color="#811EF8"/></linearGradient><clipPath id="c"><path fill="#fff" transform="translate(5.333 4)" d="M0 0h21.333v21.333H0z"/></clipPath><filter id="a" x="4" y="0" width="24" height="30.26" filterUnits="userSpaceOnUse" color-interpolation-filters="sRGB"><feFlood flood-opacity="0" result="BackgroundImageFix"/><feBlend in="SourceGraphic" in2="BackgroundImageFix" result="shape"/><feColorMatrix in="SourceAlpha" values="0 0 0 0 0 0 0 0 0 0 0 0 0 0 0 0 0 0 127 0" result="hardAlpha"/><feOffset dy="1"/><feComposite in2="hardAlpha" operator="arithmetic" k2="-1" k3="1"/><feColorMatrix values="0 0 0 0 1 0 0 0 0 1 0 0 0 0 1 0 0 0 0.5 0"/><feBlend in2="shape" result="effect1_innerShadow"/></filter></defs></svg>
