<svg width="64" height="64" viewBox="0 0 64 64" fill="none" xmlns="http://www.w3.org/2000/svg">
    <path fill-rule="evenodd" clip-rule="evenodd" d="M64 32C64 49.6731 49.6731 64 32 64C14.3269 64 0 49.6731 0 32C0 14.3269 14.3269 0 32 0C49.6731 0 64 14.3269 64 32ZM45.496 19.4106L14.6427 31.3066C12.528 32.1333 12.5653 33.304 14.28 33.848L22.1787 36.312L40.5013 24.776C41.352 24.2106 42.1413 24.5306 41.496 25.0986L26.6693 38.4933L26.1013 46.6346C26.928 46.6346 27.288 46.2746 27.7147 45.848L31.5733 42.1306L39.5733 48.0266C41.032 48.8533 42.0747 48.4266 42.464 46.672L47.7173 21.9226L47.7147 21.9253C48.1787 19.76 46.928 18.8933 45.496 19.4106Z" fill="#039BE5"/>
</svg>
