<svg width="24" height="24" viewBox="0 0 24 24" fill="none" xmlns="http://www.w3.org/2000/svg">
<path d="M12 11.2969C11.6123 11.2969 11.2969 10.9815 11.2969 10.5938C11.2969 10.3105 11.4654 10.0562 11.7262 9.9457C12.041 9.81239 12.4179 9.92616 12.7602 10.2578C13.0392 10.5281 13.4842 10.521 13.7545 10.2421C14.0247 9.96319 14.0176 9.51806 13.7387 9.24783C13.4213 8.94028 13.0684 8.72292 12.7031 8.60025V7.78125C12.7031 7.39294 12.3883 7.07812 12 7.07812C11.6117 7.07812 11.2969 7.39294 11.2969 7.78125V8.60489C11.257 8.61909 11.2172 8.63409 11.1778 8.65078C10.3959 8.98195 9.89062 9.74461 9.89062 10.5938C9.89062 11.7569 10.8369 12.7031 12 12.7031C12.3877 12.7031 12.7031 13.0185 12.7031 13.4062C12.7031 13.7009 12.5173 13.9665 12.2406 14.0673C11.8795 14.1988 11.4591 14.0205 11.0872 13.5777C10.8375 13.2804 10.394 13.2418 10.0966 13.4915C9.79926 13.7413 9.76069 14.1848 10.0104 14.4821C10.3905 14.9347 10.833 15.245 11.2969 15.4012V16.2188C11.2969 16.6071 11.6117 16.9219 12 16.9219C12.3883 16.9219 12.7032 16.6071 12.7032 16.2188V15.3951C12.7094 15.3929 12.7157 15.3909 12.722 15.3886C13.5518 15.0864 14.1094 14.2897 14.1094 13.4062C14.1094 12.2431 13.1631 11.2969 12 11.2969Z" fill="black"/>
<path fill-rule="evenodd" clip-rule="evenodd" d="M17.3867 1.28206C15.7652 0.4623 13.9346 0 12 0C5.39203 0 0 5.39292 0 12C0 18.608 5.39292 24 12 24C18.608 24 24 18.6071 24 12C24 10.0653 23.5377 8.23476 22.718 6.61332C22.2915 6.81645 21.8234 6.94631 21.3299 6.98659C22.0304 8.28527 22.4676 9.746 22.5698 11.2969H19.7021C19.5567 9.69141 18.9189 8.226 17.9409 7.05342L18.7125 6.28182C18.3255 6.01153 17.9885 5.67452 17.7182 5.28747L16.9466 6.05906C15.774 5.08106 14.3086 4.44333 12.7031 4.29792V1.43016C14.254 1.5323 15.7147 1.96952 17.0134 2.67008C17.0537 2.17663 17.1835 1.70853 17.3867 1.28206ZM11.2969 4.29792V1.43016C8.90414 1.58775 6.72605 2.54292 5.02655 4.03219L7.05342 6.05906C8.226 5.08106 9.69141 4.44328 11.2969 4.29792ZM6.05906 7.05342L4.03219 5.02655C2.54292 6.72605 1.58775 8.90414 1.43016 11.2969H4.29792C4.44333 9.69141 5.08106 8.226 6.05906 7.05342ZM4.29792 12.7031H1.43016C1.58775 15.0959 2.54292 17.274 4.03219 18.9735L6.05906 16.9466C5.08106 15.774 4.44333 14.3086 4.29792 12.7031ZM5.02655 19.9678C6.72605 21.4571 8.90414 22.4122 11.2969 22.5698V19.7021C9.69141 19.5567 8.226 18.9189 7.05342 17.9409L5.02655 19.9678ZM12 5.67188C8.51034 5.67188 5.67188 8.51133 5.67188 12C5.67188 15.4899 8.51166 18.3281 12 18.3281C15.4913 18.3281 18.3281 15.4867 18.3281 12C18.3281 8.50964 15.4879 5.67188 12 5.67188ZM12.7031 19.7021V22.5698C15.0958 22.4122 17.274 21.4571 18.9735 19.9678L16.9466 17.9409C15.774 18.9189 14.3086 19.5567 12.7031 19.7021H12.7031ZM17.941 16.9466L19.9679 18.9735C21.4571 17.274 22.4123 15.0912 22.5699 12.6984H19.7021C19.5567 14.3039 18.919 15.774 17.941 16.9466Z" fill="black"/>
<circle cx="21" cy="3" r="3" fill="#26CBFF"/>
</svg>
