<svg width="64" height="64" viewBox="0 0 64 64" fill="none" xmlns="http://www.w3.org/2000/svg">
    <g clip-path="url(#clip0)">
        <path d="M56.0001 12.0063V31.6938C56.0001 38.4188 50.5501 43.8813 43.8626 43.8813H25.8876L17.0876 51.4438C17.9876 51.7938 18.9751 51.9939 20.0001 51.9939H39.2626L52.7001 63.5188C53.0751 63.8313 53.5376 63.9939 54.0001 63.9939C54.2876 63.9939 54.5751 63.9314 54.8376 63.8064C55.5501 63.4813 56.0001 62.7689 56.0001 61.9939V51.9939C60.4126 51.9939 64.0001 48.4063 64.0001 43.9938V20.0063C64.0001 15.5938 60.4126 12.0063 56.0001 12.0063Z" fill="#64B5F6"/>
        <path fill-rule="evenodd" clip-rule="evenodd" d="M44 0.00634766H8C3.5875 0.00634766 0 3.59385 0 8.00635V32.0063C0 36.4188 3.5875 40.0063 8 40.0063V50.0063C8 50.7813 8.45 51.4938 9.1625 51.8188C9.425 51.9438 9.7125 52.0063 10 52.0063C10.4625 52.0063 10.9375 51.8438 11.3 51.5313L24.7375 40.0063H44C48.4125 40.0063 52 36.4188 52 32.0063V8.00635C52 3.59385 48.4125 0.00634766 44 0.00634766ZM30 20.0063H14C12.9 20.0063 12 20.9063 12 22.0063C12 23.1063 12.9 24.0063 14 24.0063H30C31.1 24.0063 32 23.1063 32 22.0063C32 20.9063 31.1 20.0063 30 20.0063ZM14 12.0063H38C39.1 12.0063 40 12.9063 40 14.0063C40 15.1063 39.1 16.0063 38 16.0063H14C12.9 16.0063 12 15.1063 12 14.0063C12 12.9063 12.9 12.0063 14 12.0063Z" fill="#2196F3"/>
    </g>
    <defs>
        <clipPath id="clip0">
            <path d="M0 0H64V64H0V0Z" fill="white"/>
        </clipPath>
    </defs>
</svg>
