
<svg width="24" height="24" viewBox="0 0 24 24" fill="none" xmlns="http://www.w3.org/2000/svg">
  <path d="M15.1689 6.31671L13.4866 5.87679L12.5265 4.51689C12.4057 4.34586 12.2093 4.24414 12 4.24414C11.7907 4.24414 11.5943 4.34586 11.4734 4.51689L10.5134 5.87679L8.83102 6.31671C8.61685 6.3726 8.44648 6.53458 8.37951 6.74556C8.31271 6.95654 8.35887 7.18716 8.5017 7.35619L9.57139 8.62209L9.49838 10.2306C9.48864 10.4444 9.58566 10.649 9.75754 10.7769C9.87016 10.8607 10.0054 10.9043 10.1422 10.9043C10.2139 10.9043 10.2859 10.8924 10.3552 10.868L12 10.2922L13.6447 10.868C13.8468 10.9387 14.0707 10.9046 14.2424 10.7769C14.4143 10.649 14.5113 10.4444 14.5016 10.2306L14.4285 8.62209L15.4982 7.35619C15.6411 7.18716 15.6872 6.95654 15.6204 6.74556C15.5535 6.53458 15.3831 6.3726 15.1689 6.31671ZM13.2808 7.98293C13.1761 8.10696 13.1219 8.26608 13.1292 8.42822L13.1705 9.33627L12.213 9.00092C12.075 8.95258 11.9249 8.95258 11.787 9.00092L10.8294 9.33627L10.8705 8.42822C10.8779 8.26608 10.8239 8.10696 10.719 7.98293L10.1463 7.30516L11.0671 7.0643C11.2143 7.02586 11.343 6.93674 11.4306 6.81253L12 6.0062L12.5695 6.81253C12.6571 6.93674 12.7858 7.02586 12.9329 7.0643L13.8537 7.30516L13.2808 7.98293Z" fill="black"/>
  <path d="M22.3555 2.375H18.4883V1.64453C18.4883 1.28853 18.1998 1 17.8438 1H6.15625C5.80025 1 5.51172 1.28853 5.51172 1.64453V2.375H1.64453C1.28853 2.375 1 2.66353 1 3.01953V6.15625C1 8.84767 3.14424 11.0473 5.81418 11.1374C6.40248 13.0484 7.80283 14.588 9.59375 15.3193V15.9102C9.59375 17.7108 8.12878 19.1758 6.32813 19.1758C5.97212 19.1758 5.68359 19.4643 5.68359 19.8203V22.3555C5.68359 22.7115 5.97212 23 6.32813 23H17.6719C18.0279 23 18.3164 22.7115 18.3164 22.3555V19.8203C18.3164 19.4643 18.0279 19.1758 17.6719 19.1758C15.8712 19.1758 14.4063 17.7108 14.4063 15.9102V15.3193C16.1972 14.588 17.5975 13.0484 18.1858 11.1374C20.8558 11.0473 23 8.84767 23 6.15625V3.01953C23 2.66353 22.7115 2.375 22.3555 2.375ZM5.51172 9.82152C3.69646 9.58871 2.28906 8.03378 2.28906 6.15625V3.66406H5.51172V9.82152ZM6.97266 21.7109V20.4648H17.0273V21.7109H6.97266ZM14.5002 19.1758H9.49976C10.3522 18.3476 10.8828 17.1897 10.8828 15.9102V15.6893C11.2299 15.7494 11.5863 15.7813 11.9496 15.7813H12.0504C12.4137 15.7813 12.7701 15.7494 13.1172 15.6893V15.9102C13.1172 17.1897 13.6478 18.3476 14.5002 19.1758ZM13.5823 14.2493C13.5737 14.2518 13.5652 14.2545 13.5566 14.2574C13.0799 14.4099 12.5742 14.4922 12.0504 14.4922H11.9496C11.4258 14.4922 10.9199 14.4099 10.4432 14.2574C10.4348 14.2545 10.4263 14.2518 10.4175 14.2493C8.32433 13.5672 6.80078 11.525 6.80078 9.11858V2.33203H17.1992V9.11858C17.1992 11.525 15.6757 13.5672 13.5823 14.2493ZM21.7109 6.15625C21.7109 8.03378 20.3035 9.58871 18.4883 9.82152V3.66406H21.7109V6.15625Z" fill="black"/>
</svg>
