<svg width="24" height="24" viewBox="0 0 24 24" fill="none" xmlns="http://www.w3.org/2000/svg">
	<path d="M2.77422 8.93753H3.36395C3.01239 9.65303 2.82423 10.4475 2.82423 11.2469C2.82423 11.6352 3.13905 11.95 3.52736 11.95C3.91567 11.95 4.23048 11.6352 4.23048 11.2469C4.23048 10.4268 4.50151 9.61366 4.99361 8.95755L5.21955 8.65633C5.37934 8.44323 5.40508 8.15819 5.28597 7.91997C5.16686 7.68175 4.92339 7.53128 4.65705 7.53128H2.77422C2.38591 7.53128 2.07109 7.84609 2.07109 8.23441C2.07109 8.62272 2.38591 8.93753 2.77422 8.93753Z" fill="black"/>
	<path d="M8.79918 8.93753H9.38891C9.0373 9.65303 8.84919 10.4475 8.84919 11.2469C8.84919 11.6352 9.16401 11.95 9.55232 11.95C9.94063 11.95 10.2554 11.6352 10.2554 11.2469C10.2554 10.4268 10.5265 9.6137 11.0186 8.9575L11.2445 8.65633C11.4043 8.44323 11.43 8.15819 11.3109 7.91997C11.1918 7.68175 10.9483 7.53128 10.682 7.53128H8.79913C8.41082 7.53128 8.096 7.84609 8.096 8.23441C8.096 8.62272 8.41086 8.93753 8.79918 8.93753Z" fill="black"/>
	<path d="M14.8242 7.43122H15.4139C15.0623 8.14663 14.8742 8.94106 14.8742 9.74061C14.8742 10.1289 15.189 10.4436 15.5774 10.4436C15.9657 10.4436 16.2805 10.1286 16.2805 9.74033C16.2805 8.9203 16.5514 8.10744 17.0434 7.45147L17.2695 7.14992C17.4293 6.93688 17.455 6.65183 17.3359 6.41361C17.2168 6.17544 16.9734 6.02497 16.707 6.02497H14.8242C14.4359 6.02497 14.1211 6.33978 14.1211 6.7281C14.1211 7.11641 14.4359 7.43122 14.8242 7.43122Z" fill="black"/>
	<path d="M14.2594 20.9875H16.5188C16.9071 20.9875 17.2219 20.6726 17.2219 20.2843C17.2219 19.896 16.9071 19.5812 16.5188 19.5812H14.2594C13.8711 19.5812 13.5563 19.896 13.5563 20.2843C13.5563 20.6726 13.8711 20.9875 14.2594 20.9875Z" fill="black"/>
	<path d="M24 3.33905C24 2.32842 23.1778 1.50623 22.1672 1.50623C21.1566 1.50623 20.3344 2.32842 20.3344 3.33905C20.3344 4.10067 20.8014 4.75505 21.4641 5.03137V10.4937C21.4641 10.9373 21.1051 11.2969 20.661 11.2969H19.4813V2.58595C19.4813 1.15781 18.3259 0 16.8953 0H2.58595C1.15781 0 0 1.15538 0 2.58595V23.2969C0 23.6852 0.314812 24 0.703125 24H18.7781C19.1664 24 19.4813 23.6852 19.4813 23.2969V12.7031H20.661C21.8813 12.7031 22.8703 11.7159 22.8703 10.4937V5.03137C23.5329 4.75505 24 4.10067 24 3.33905ZM12.05 5.17186V14.3094H7.43123V5.17186H12.05ZM18.075 5.17186V14.3094H13.4563V5.17186H18.075ZM6.02498 14.3094H1.40625V5.17186H6.02498V14.3094ZM1.40625 15.7156H18.075V16.5688H1.40625V15.7156ZM1.40625 2.58595C1.40625 1.9343 1.9335 1.40625 2.58595 1.40625H16.8953C17.547 1.40625 18.075 1.93355 18.075 2.58595V3.76561H1.40625V2.58595ZM18.075 22.5938H1.40625V17.975H18.075V22.5938ZM22.1672 2.91253C22.4024 2.91253 22.5938 3.10388 22.5938 3.33909C22.5938 3.57431 22.4024 3.76566 22.1672 3.76566C21.932 3.76566 21.7406 3.57431 21.7406 3.33909C21.7406 3.10388 21.932 2.91253 22.1672 2.91253Z" fill="black"/>
</svg>
