<svg width="96" height="96" viewBox="0 0 96 96" fill="none" xmlns="http://www.w3.org/2000/svg">
<g clip-path="url(#clip0)">
<path d="M52.6402 72.36C52.6402 70.0404 50.7598 68.16 48.4402 68.16C46.1206 68.16 44.2402 70.0404 44.2402 72.36C44.2402 74.6796 46.1206 76.56 48.4402 76.56C50.7598 76.56 52.6402 74.6796 52.6402 72.36Z" fill="#FF5E3A"/>
<path d="M58.1735 34.1467C57.0887 32.7155 55.6966 31.5461 54.0997 30.7246C52.5028 29.903 50.7419 29.4504 48.9468 29.4H48.2002C45.5735 29.4347 43.0194 30.2668 40.8764 31.786C38.7334 33.3052 37.1026 35.4397 36.2002 37.9067C35.9354 38.6742 35.9843 39.5152 36.3364 40.2468C36.6884 40.9784 37.3152 41.5414 38.0802 41.8134C38.4098 41.93 38.7572 41.9887 39.1068 41.9867C39.7404 41.9855 40.3581 41.789 40.8759 41.4239C41.3936 41.0589 41.7862 40.543 42.0002 39.9467C42.4834 38.6734 43.3378 37.5745 44.4527 36.7924C45.5676 36.0102 46.8917 35.5809 48.2535 35.56H48.6668C49.5696 35.5605 50.4601 35.7688 51.2693 36.1688C52.0786 36.5688 52.7849 37.1498 53.3335 37.8667C53.8995 38.6222 54.3089 39.4831 54.5379 40.3989C54.7668 41.3147 54.8107 42.267 54.6668 43.2C54.4019 44.26 53.9059 45.2484 53.2144 46.0943C52.5229 46.9403 51.653 47.6229 50.6668 48.0934C45.0535 51.5334 44.7735 55.1334 45.0002 59.4934C45.0379 60.281 45.3775 61.0238 45.9486 61.5676C46.5197 62.1114 47.2783 62.4143 48.0668 62.4134H48.2402C49.0526 62.3685 49.8143 62.0041 50.359 61.3995C50.9036 60.7949 51.1868 59.9994 51.1468 59.1867C50.9868 56.1067 51.3202 54.7867 53.5335 53.56C55.317 52.6832 56.8819 51.4189 58.1138 49.8594C59.3458 48.2999 60.2135 46.4847 60.6535 44.5467C60.9801 42.7359 60.9284 40.8771 60.5016 39.0872C60.0748 37.2974 59.2821 35.6153 58.1735 34.1467Z" fill="#FF5E3A"/>
<path d="M47.9999 91.1334C35.469 91.2712 22.9441 90.5183 10.5199 88.8801C8.61839 88.6077 6.80779 87.8912 5.23487 86.7885C3.66196 85.6859 2.37098 84.2281 1.46658 82.5334C0.554386 80.8555 0.0511769 78.9859 -0.00211145 77.0768C-0.0553998 75.1677 0.342738 73.2729 1.15991 71.5467C7.82658 57.4001 21.4266 30.5067 38.4932 9.42672C39.6417 8.00193 41.0947 6.85248 42.7456 6.06277C44.3964 5.27306 46.2032 4.86316 48.0332 4.86316C49.8633 4.86316 51.67 5.27306 53.3209 6.06277C54.9718 6.85248 56.4248 8.00193 57.5732 9.42672C74.6666 30.4801 88.2266 57.3334 94.8399 71.4534C95.6502 73.1861 96.044 75.0842 95.99 76.9962C95.9359 78.9082 95.4355 80.7811 94.5286 82.4653C93.6218 84.1494 92.3337 85.5981 90.7672 86.6957C89.2006 87.7934 87.3991 88.5094 85.5066 88.7867C73.0775 90.4747 60.5424 91.259 47.9999 91.1334ZM41.3332 11.8001C24.6132 32.5734 11.1332 59.1601 4.58658 73.1467C4.02202 74.3411 3.7471 75.6517 3.78417 76.9722C3.82124 78.2928 4.16924 79.5859 4.79991 80.7467C5.42776 81.9177 6.322 82.9248 7.41052 83.6868C8.49905 84.4488 9.75139 84.9443 11.0666 85.1334C23.3098 86.7442 35.6519 87.4839 47.9999 87.3467C60.355 87.4716 72.7029 86.7007 84.9466 85.04C86.2548 84.8449 87.4994 84.347 88.5812 83.5858C89.663 82.8247 90.552 81.8214 91.1775 80.6559C91.8029 79.4904 92.1476 78.195 92.1839 76.8727C92.2202 75.5505 91.9472 74.2381 91.3866 73.04C84.8532 59.0667 71.3866 32.5334 54.5866 11.7867C53.7916 10.8039 52.787 10.0112 51.6462 9.46663C50.5054 8.92209 49.2573 8.63948 47.9932 8.63948C46.7291 8.63948 45.4811 8.92209 44.3403 9.46663C43.1995 10.0112 42.1949 10.8039 41.3999 11.7867L41.3332 11.8001Z" fill="white"/>
</g>
<defs>
<clipPath id="clip0">
<rect width="96" height="96" fill="white"/>
</clipPath>
</defs>
</svg>
