<svg xmlns="http://www.w3.org/2000/svg" fill="none" viewBox="0 0 36 36">
  <path fill="url(#paint0_linear)" d="M33.5549 20.1203c.7068-1.0675 1.0597-2.2427 1.0597-3.5263 0-1.4857-.5474-2.7761-1.6433-3.8733-1.0964-1.0961-2.3945-1.644-3.8943-1.644h-3.8077c.6921-1.42776 1.0388-2.81252 1.0388-4.15364 0-1.68755-.2531-3.02875-.7575-4.02396-.5048-.99551-1.2405-1.72726-2.2069-2.196223C22.377.234141 21.2885 0 20.077 0c-.7359 0-1.3847.266799-1.9472.800625-.62.605655-1.0672 1.384685-1.3411 2.336635-.2741.95164-.4941 1.86403-.6598 2.73664-.1657.87253-.422 1.4891-.768 1.84964-.7069.7644-1.4784 1.6877-2.315 2.76926-1.4566 1.8892-2.4447 3.0071-2.9637 3.3534H4.15459c-.76441 0-1.41712.2708-1.958.8112-.54064.541-.81115 1.1936-.81115 1.9581v13.8456c0 .7645.27021 1.4169.81115 1.9578.54118.541 1.19359.8116 1.958.8116h6.23021c.3173 0 1.3123.2884 2.9854.8654 1.7741.6203 3.3353 1.0925 4.6837 1.4171 1.3485.3246 2.7151.487 4.0998.487h2.7907c2.0334 0 3.6703-.5809 4.9108-1.742 1.24-1.1612 1.8533-2.744 1.839-4.7488.8654-1.1106 1.298-2.3942 1.298-3.8507 0-.3171-.0213-.6272-.0648-.9304.5478-.9659.8224-2.0044.8224-3.115-.0002-.5193-.065-1.0171-.1949-1.4928zm-27.04216 9.93c-.274.2739-.59846.4113-.97347.4113-.37508 0-.69961-.1374-.97369-.4113-.27392-.2737-.41099-.5984-.41099-.9737 0-.3749.13677-.6993.41099-.9734.27438-.2741.59861-.4111.97369-.4111.37501 0 .69947.137.97347.4111.27407.274.41115.5984.41115.9734 0 .3753-.13708.7-.41115.9737zM31.3814 18.369c-.3102.6633-.6961 1.0022-1.1576 1.0165.2163.2453.3967.5881.541 1.0276.1441.44.2157.8401.2157 1.2009 0 .9947-.3817 1.853-1.1461 2.5739.2599.4614.3895.9592.3895 1.4926 0 .5336-.126 1.0637-.3786 1.59-.252.5259-.5948.9046-1.0274 1.1352.0721.4326.1079.8366.1079 1.2115 0 2.4085-1.3847 3.6127-4.1542 3.6127h-2.6169c-1.8898 0-4.3557-.5261-7.3991-1.5792-.0723-.0288-.2811-.1048-.6275-.2271-.3463-.1224-.6022-.2126-.7681-.2702-.166-.0581-.4182-.141-.7573-.2489-.3391-.1084-.6128-.1878-.8221-.2381-.209-.0503-.4471-.0972-.7137-.1405-.2667-.0433-.494-.0648-.6814-.0648h-.69231V16.616h.69231c.2307 0 .4866-.0651.7679-.1946.2812-.1298.5698-.3245.8654-.5842.2958-.2596.5732-.5156.8329-.7682.2597-.2523.5481-.5696.8655-.9516.3173-.3824.5661-.6887.7465-.9195.1802-.2308.4073-.5266.6813-.8871.2739-.3605.44-.5769.4976-.6491.7932-.9806 1.3484-1.6368 1.6657-1.96866.5913-.61998 1.0204-1.40961 1.2872-2.36876.2671-.95929.487-1.86433.6594-2.71512.1729-.85086.4473-1.46402.8228-1.83903 1.3842 0 2.3075.33879 2.7689 1.01674.4613.67779.6921 1.72354.6921 3.13695 0 .85086-.3464 2.00823-1.0389 3.47198-.6921 1.464-1.0379 2.6142-1.0379 3.4507h7.6149c.7219 0 1.3634.2775 1.9256.8331.5627.5552.8444 1.2004.8444 1.9362-.0003.5047-.1554 1.0889-.4654 1.7532z"/>
  <defs>
    <linearGradient id="paint0_linear" x1="18" x2="18" y1="0" y2="36" gradientUnits="userSpaceOnUse">
      <stop stop-color="#FF5252"/>
      <stop offset="1" stop-color="#E91E63"/>
    </linearGradient>
  </defs>
</svg>