<svg width="24" height="24" viewBox="0 0 24 24" fill="currentColor" xmlns="http://www.w3.org/2000/svg"><path d="M17.546 8.992L14.3 12.194a1.373 1.373 0 001.928 1.954l1.17-1.153c-.747 3.991-5.422 5.829-8.682 3.398a1.373 1.373 0 00-1.641 2.202c4.91 3.66 11.933.865 13.03-5.132l.544.553a1.373 1.373 0 001.956-1.929l-3.07-3.11a1.37 1.37 0 00-1.99.015zM4.473 15.013l.003.002c.531.535 1.4.543 1.939.011l3.285-3.24a1.373 1.373 0 10-1.928-1.955l-1.176 1.16c.779-4.217 5.96-6.004 9.16-3.009a1.373 1.373 0 001.876-2.005C12.89 1.54 5.06 4.08 3.892 10.513l-.542-.549a1.373 1.373 0 10-1.955 1.928l3.078 3.12z" fill="currentColor"/></svg>
