<svg xmlns="http://www.w3.org/2000/svg" width="24" height="24" fill="none"><path fill="url(#a)" fill-rule="evenodd" d="M22 12a10 10 0 1 1-20 0 10 10 0 0 1 20 0Zm-9.64-2.62c-.97.4-2.92 1.24-5.83 2.51-.48.2-.73.38-.75.56-.04.3.35.42.86.58l.22.07c.51.17 1.2.36 1.56.37.32 0 .68-.13 1.08-.4 2.73-1.84 4.13-2.77 4.22-2.79.06-.01.15-.03.2.02.07.05.06.15.05.18a28.2 28.2 0 0 1-2.3 2.27l-.45.42a8.8 8.8 0 0 1-.24.23c-.47.46-.83.8.02 1.36l1.06.72 1.17.78.34.24c.42.3.79.56 1.25.52.27-.03.54-.28.68-1.03.33-1.77.98-5.6 1.14-7.19 0-.14 0-.32-.02-.4a.42.42 0 0 0-.14-.26.66.66 0 0 0-.4-.12c-.37 0-.94.2-3.72 1.36Z" clip-rule="evenodd"/><path fill="#fff" d="M6.53 11.9c2.91-1.28 4.86-2.11 5.83-2.52 2.78-1.15 3.35-1.35 3.73-1.36.08 0 .27.02.39.12.1.08.12.19.14.27.01.07.03.25.02.39-.16 1.58-.8 5.42-1.14 7.19-.14.75-.41 1-.68 1.03-.46.04-.83-.23-1.25-.52l-.34-.24-1.17-.78-1.06-.72c-.85-.56-.5-.9-.02-1.36l.24-.23.45-.42a28.2 28.2 0 0 0 2.3-2.27c.01-.03.02-.13-.04-.18-.06-.05-.15-.03-.21-.02-.09.02-1.5.95-4.22 2.8-.4.26-.76.4-1.08.4-.36-.02-1.05-.21-1.56-.38l-.22-.07c-.51-.16-.9-.28-.86-.58.02-.18.27-.37.75-.56Z"/><defs><linearGradient id="a" x1="1002" x2="1002" y1="2" y2="1987.17" gradientUnits="userSpaceOnUse"><stop stop-color="#2AABEE"/><stop offset="1" stop-color="#229ED9"/></linearGradient></defs></svg>