<svg width="24" height="24" viewBox="0 0 24 24" fill="none" xmlns="http://www.w3.org/2000/svg">
<path fill-rule="evenodd" clip-rule="evenodd" d="M12.6831 23.9809C18.9927 23.6268 24 18.3982 24 12C24 5.37258 18.6274 0 12 0C5.37258 0 0 5.37258 0 12C0 18.4729 5.12497 23.7488 11.5385 23.9913C11.0596 23.9731 10.588 23.9269 10.125 23.8543V15.4688H7.07812V12H10.125V9.35625C10.125 6.34875 11.9165 4.68749 14.6576 4.68749C15.9705 4.68749 17.3438 4.92187 17.3438 4.92187V7.875H15.8306C14.3399 7.875 13.875 8.80001 13.875 9.74899V12H17.2031L16.6711 15.4688H13.875V23.8543C13.4836 23.9157 13.086 23.9582 12.6831 23.9809Z" fill="white"/>
</svg>
