<svg width="24" height="24" viewBox="0 0 24 24" fill="none" xmlns="http://www.w3.org/2000/svg">
<g clip-path="url(#clip0)">
<path d="M21.479 7.09257C21.4935 7.30257 21.4935 7.51257 21.4935 7.7245C21.4935 14.1822 16.5774 21.63 7.58806 21.63V21.6261C4.93258 21.63 2.33226 20.8693 0.0967712 19.4351C0.4829 19.4816 0.870965 19.5048 1.26 19.5058C3.46064 19.5077 5.59838 18.7693 7.32967 17.4097C5.23838 17.37 3.40451 16.0064 2.76387 14.0158C3.49645 14.1571 4.25129 14.128 4.97032 13.9316C2.69032 13.471 1.05 11.4677 1.05 9.14128C1.05 9.11999 1.05 9.09966 1.05 9.07934C1.72935 9.45773 2.49 9.66773 3.26806 9.69095C1.12064 8.25579 0.458707 5.39902 1.75548 3.16547C4.23677 6.2187 7.89774 8.07482 11.8277 8.27128C11.4339 6.57386 11.9719 4.79515 13.2416 3.60192C15.21 1.7516 18.3058 1.84644 20.1561 3.81386C21.2506 3.59805 22.2997 3.19644 23.2597 2.62741C22.8948 3.7587 22.1313 4.71966 21.1113 5.33031C22.08 5.21612 23.0264 4.95676 23.9177 4.56095C23.2616 5.54418 22.4352 6.40063 21.479 7.09257Z" fill="white"/>
</g>
<defs>
<clipPath id="clip0">
<rect width="24" height="19.7419" fill="white" transform="translate(0 2.12903)"/>
</clipPath>
</defs>
</svg>
