<svg width="24" height="24" viewBox="0 0 24 24" fill="none" xmlns="http://www.w3.org/2000/svg">
<path fill-rule="evenodd" clip-rule="evenodd" d="M12 0C8.74067 0 8.33267 0.0133333 7.05267 0.072C5.77533 0.130667 4.90267 0.333333 4.13933 0.63C3.33867 0.931291 2.61337 1.4036 2.014 2.014C1.40372 2.61347 0.931426 3.33874 0.63 4.13933C0.333333 4.90267 0.13 5.77533 0.072 7.05333C0.014 8.33267 0 8.74 0 12C0 15.26 0.0133333 15.6673 0.072 16.9473C0.130667 18.2247 0.333333 19.0973 0.63 19.8607C0.931291 20.6613 1.4036 21.3866 2.014 21.986C2.68067 22.6527 3.35067 23.0633 4.13933 23.37C4.90267 23.6667 5.77533 23.87 7.05267 23.928C8.33267 23.986 8.74067 24 12 24C15.2593 24 15.6673 23.9867 16.9473 23.928C18.2247 23.8693 19.0973 23.6667 19.8607 23.37C20.6613 23.0687 21.3866 22.5964 21.986 21.986C22.6527 21.3193 23.0633 20.6493 23.37 19.8607C23.6667 19.0973 23.87 18.2247 23.928 16.9473C23.986 15.6673 24 15.2593 24 12C24 8.74067 23.9867 8.33267 23.928 7.05267C23.8693 5.77533 23.6667 4.90267 23.37 4.13933C23.0687 3.33868 22.5964 2.61339 21.986 2.014C21.3865 1.40372 20.6613 0.931426 19.8607 0.63C19.0973 0.333333 18.2247 0.13 16.9467 0.072C15.6673 0.014 15.26 0 12 0ZM12 2.162C15.204 2.162 15.584 2.17467 16.8493 2.232C18.0193 2.28533 18.6547 2.48067 19.0773 2.64533C19.6373 2.86267 20.0373 3.12333 20.4573 3.54267C20.8773 3.96267 21.1373 4.36267 21.3547 4.92267C21.5193 5.34533 21.7147 5.98067 21.768 7.15067C21.8253 8.416 21.838 8.796 21.838 12C21.838 15.204 21.8253 15.584 21.768 16.8493C21.7147 18.0193 21.5193 18.6547 21.3547 19.0773C21.1624 19.5986 20.8558 20.0702 20.4573 20.4573C20.0373 20.8773 19.6373 21.1373 19.0773 21.3547C18.6547 21.5193 18.0193 21.7147 16.8493 21.768C15.584 21.8253 15.2047 21.838 12 21.838C8.79533 21.838 8.416 21.8253 7.15067 21.768C5.98067 21.7147 5.34533 21.5193 4.92267 21.3547C4.40139 21.1624 3.92983 20.8558 3.54267 20.4573C3.1442 20.0702 2.83758 19.5986 2.64533 19.0773C2.48067 18.6547 2.28533 18.0193 2.232 16.8493C2.17467 15.584 2.162 15.204 2.162 12C2.162 8.796 2.17467 8.416 2.232 7.15067C2.28533 5.98067 2.48067 5.34533 2.64533 4.92267C2.86267 4.36267 3.12333 3.96267 3.54267 3.54267C3.96267 3.12267 4.36267 2.86267 4.92267 2.64533C5.34533 2.48067 5.98067 2.28533 7.15067 2.232C8.416 2.17467 8.796 2.162 12 2.162Z" fill="white"/>
<path fill-rule="evenodd" clip-rule="evenodd" d="M12 16.004C11.4742 16.004 10.9535 15.9004 10.4677 15.6992C9.98195 15.498 9.54055 15.2031 9.16875 14.8312C8.79694 14.4594 8.50201 14.018 8.30079 13.5323C8.09957 13.0465 7.996 12.5258 7.996 12C7.996 11.4742 8.09957 10.9535 8.30079 10.4677C8.50201 9.98194 8.79694 9.54054 9.16875 9.16874C9.54055 8.79693 9.98195 8.502 10.4677 8.30078C10.9535 8.09956 11.4742 7.99599 12 7.99599C13.0619 7.99599 14.0804 8.41784 14.8313 9.16874C15.5822 9.91963 16.004 10.9381 16.004 12C16.004 13.0619 15.5822 14.0804 14.8313 14.8312C14.0804 15.5821 13.0619 16.004 12 16.004ZM12 5.83199C10.3641 5.83199 8.79529 6.48183 7.63857 7.63856C6.48184 8.79528 5.832 10.3641 5.832 12C5.832 13.6358 6.48184 15.2047 7.63857 16.3614C8.79529 17.5182 10.3641 18.168 12 18.168C13.6359 18.168 15.2047 17.5182 16.3614 16.3614C17.5182 15.2047 18.168 13.6358 18.168 12C18.168 10.3641 17.5182 8.79528 16.3614 7.63856C15.2047 6.48183 13.6359 5.83199 12 5.83199ZM19.9627 5.71999C19.9627 6.10668 19.8091 6.47753 19.5356 6.75096C19.2622 7.02438 18.8914 7.17799 18.5047 7.17799C18.118 7.17799 17.7471 7.02438 17.4737 6.75096C17.2003 6.47753 17.0467 6.10668 17.0467 5.71999C17.0467 5.33331 17.2003 4.96246 17.4737 4.68903C17.7471 4.4156 18.118 4.26199 18.5047 4.26199C18.8914 4.26199 19.2622 4.4156 19.5356 4.68903C19.8091 4.96246 19.9627 5.33331 19.9627 5.71999Z" fill="white"/>
</svg>
