<svg xmlns="http://www.w3.org/2000/svg" width="24" height="24" fill="none"><path fill="#25D366" fill-rule="evenodd" d="M19.09 4.9a9.95 9.95 0 0 0-17 7c0 1.76.45 3.46 1.32 4.96L2 22l5.28-1.38A9.95 9.95 0 0 0 22 11.92a9.83 9.83 0 0 0-2.91-7.01ZM16.59 14c-.26-.13-1.48-.73-1.7-.81-.24-.08-.4-.12-.57.12-.16.25-.64.81-.79.97-.14.17-.29.2-.53.07-.25-.13-1.06-.39-2-1.23a7.47 7.47 0 0 1-1.39-1.72c-.15-.25-.02-.38.1-.5.12-.11.26-.3.38-.44.13-.14.17-.24.25-.41.08-.17.04-.3-.02-.43l-.77-1.84c-.2-.48-.4-.42-.56-.43h-.47a.92.92 0 0 0-.67.3c-.23.25-.87.85-.87 2.07 0 1.21.89 2.39 1.02 2.56.12.17 1.75 2.67 4.25 3.74.6.26 1.06.4 1.42.52.6.2 1.14.16 1.56.1.48-.07 1.48-.6 1.68-1.18.21-.58.21-1.07.15-1.17-.06-.1-.23-.17-.48-.3Z" clip-rule="evenodd"/><path fill="#fff" d="M16.58 13.99c-.25-.13-1.47-.73-1.7-.81-.23-.08-.4-.12-.56.12-.16.25-.64.81-.79.97-.14.17-.29.2-.53.07-.25-.13-1.06-.39-2-1.23a7.47 7.47 0 0 1-1.39-1.72c-.15-.25-.02-.38.1-.5.12-.11.26-.3.38-.44.13-.14.17-.24.25-.41.08-.17.04-.3-.02-.43l-.77-1.84c-.2-.48-.4-.42-.56-.43h-.47a.92.92 0 0 0-.67.3c-.23.25-.87.85-.87 2.07 0 1.21.89 2.39 1.02 2.56.12.17 1.75 2.67 4.25 3.74.6.26 1.06.4 1.42.52.6.2 1.14.16 1.56.1.48-.07 1.48-.6 1.68-1.18.21-.58.21-1.07.15-1.17-.06-.1-.23-.17-.48-.3Z"/></svg>