<svg xmlns="http://www.w3.org/2000/svg" width="17" height="16" fill="none"><path fill="#FDD835" d="M7.86 2.3c.15-.3.23-.46.33-.51.1-.05.2-.05.29 0 .1.05.18.2.33.51l1.46 2.96.1.17.1.08.2.04 3.26.47c.35.05.52.08.6.16.07.08.1.18.08.28-.01.11-.13.23-.38.47l-2.36 2.3a.73.73 0 0 0-.14.15.33.33 0 0 0-.04.12l.02.2.56 3.25c.06.34.09.51.03.61a.33.33 0 0 1-.23.17c-.11.02-.27-.06-.57-.22l-2.92-1.53c-.09-.05-.13-.07-.18-.08h-.13c-.05 0-.1.03-.18.08L5.17 13.5c-.3.16-.46.24-.57.22a.33.33 0 0 1-.24-.17c-.05-.1-.02-.27.04-.61l.55-3.25c.02-.1.03-.15.02-.2a.33.33 0 0 0-.04-.12.73.73 0 0 0-.13-.15l-2.36-2.3c-.25-.24-.37-.36-.39-.47-.01-.1.02-.2.1-.28.07-.08.24-.1.59-.16L6 5.55l.2-.04a.33.33 0 0 0 .1-.08.73.73 0 0 0 .1-.17L7.86 2.3Z"/></svg>