<svg xmlns="http://www.w3.org/2000/svg" width="24" height="24" fill="none" viewBox="0 0 24 24">
  <path fill="url(#a)" fill-rule="evenodd" d="M7.6 8.676v3.358h1.1v-2.81a.55.55 0 0 1 1.1 0v2.81h4.4v-2.81a.55.55 0 0 1 1.1 0v2.81h1.1V8.676c0-.603-.215-1.12-.646-1.55a2.124 2.124 0 0 0-1.554-.643H9.8a2.12 2.12 0 0 0-1.553.644 2.11 2.11 0 0 0-.647 1.55Zm4.4-3.29a2.12 2.12 0 0 1-1.553-.644A2.106 2.106 0 0 1 9.8 3.193c0-.603.216-1.12.647-1.55A2.12 2.12 0 0 1 12 1c.605 0 1.123.215 1.554.644.43.43.646.946.646 1.55 0 .602-.215 1.118-.646 1.548-.43.43-.949.644-1.554.644Zm-5.5 3.29c0-.253.028-.498.082-.734C3.36 8.859 1 11.817 1 15.324 1 19.564 4.447 23 8.7 23h6.6c4.253 0 7.7-3.437 7.7-7.676 0-3.508-2.36-6.466-5.583-7.382.054.236.082.481.082.734v1.62a5.484 5.484 0 0 1 3.301 5.028c0 3.028-2.462 5.483-5.5 5.483H8.7c-3.038 0-5.5-2.455-5.5-5.483a5.484 5.484 0 0 1 3.3-5.027V8.676Zm-.55 5.003h2.2v3.29h-2.2v-3.29Zm5.5 0h-2.2v3.29h2.2v-3.29Zm1.1 0h2.2v3.29h-2.2v-3.29Zm5.5 0h-2.2v3.29h2.2v-3.29Z" clip-rule="evenodd"/>
  <defs>
    <linearGradient id="a" x1="14.432" x2="14.432" y1="23" y2="1" gradientUnits="userSpaceOnUse">
      <stop stop-color="#B9E758"/>
      <stop offset="1" stop-color="#1C9513"/>
    </linearGradient>
  </defs>
</svg>
