<svg xmlns="http://www.w3.org/2000/svg" width="24" height="24" fill="none" viewBox="0 0 24 24">
  <path fill="url(#a)" d="M13.218 2.029c2.45.42 4.899.846 7.346 1.285 1.075.193 1.582.905 1.4 1.97-.264 1.536-.536 3.07-.808 4.605l-.394 2.224-.22 1.254c-.225 1.272-.45 2.545-.67 3.818-.207 1.205-.924 1.689-2.125 1.51-.577-.088-.818-.274-.946-.905-.238-1.178-.569-2.337-.9-3.496l-.27-.951c-.081-.295-.051-.464.224-.647.808-.536 1.533-1.175 2.046-2.008.226-.365.409-.773.52-1.185.181-.663-.081-1.236-.63-1.567-.536-.322-1.167-.254-1.687.183a9.032 9.032 0 0 0-.126.11l-.015.012c-.402-.812-1.031-1.074-1.914-.852a59.562 59.562 0 0 0-.132-.47 26.632 26.632 0 0 1-.273-1.013c-.287-1.183-1.012-1.92-2.203-2.196-.029-.006-.057-.019-.083-.03l-.035-.016c.008-1.106.825-1.819 1.895-1.635Z"/>
  <path fill="url(#b)" fill-rule="evenodd" d="m13.935 11.507.724 2.705.032.123c.318 1.186.636 2.372.959 3.557.282 1.037-.148 1.827-1.184 2.108-2.39.648-4.78 1.288-7.173 1.925-1.015.27-1.797-.2-2.069-1.213L4.54 18.16a1255.41 1255.41 0 0 0-2.397-8.851c-.36-1.304-.094-2.197 1.486-2.584 1.566-.384 3.121-.806 4.677-1.229.712-.193 1.424-.386 2.137-.576.115-.03.232-.05.349-.069a8.15 8.15 0 0 0 .155-.026c.71.022 1.324.474 1.509 1.16.496 1.84.988 3.681 1.48 5.523Zm-3.91 4.859c.374-1.082.745-2.165 1.085-3.257h.002c.047-.152-.027-.427-.145-.536a104.542 104.542 0 0 0-2.302-2.041l-.22-.192a1.23 1.23 0 0 0-.24-.148 4.917 4.917 0 0 1-.177-.098 2.27 2.27 0 0 1-.13.145c-.09.097-.177.188-.214.295a122.4 122.4 0 0 0-.595 1.735c-.162.484-.325.967-.493 1.449-.086.246-.026.421.154.58l.495.435c.687.603 1.375 1.207 2.066 1.806.278.24.597.165.714-.174Z" clip-rule="evenodd"/>
  <defs>
    <linearGradient id="a" x1="12" x2="12" y1="22" y2="2" gradientUnits="userSpaceOnUse">
      <stop stop-color="#DE30FA"/>
      <stop offset="1" stop-color="#741EB7"/>
    </linearGradient>
    <linearGradient id="b" x1="12" x2="12" y1="22" y2="2" gradientUnits="userSpaceOnUse">
      <stop stop-color="#DE30FA"/>
      <stop offset="1" stop-color="#741EB7"/>
    </linearGradient>
  </defs>
</svg>
