<svg xmlns="http://www.w3.org/2000/svg" width="24" height="24" fill="none" viewBox="0 0 24 24">
  <path fill="url(#a)" d="M8.5 8.13c-1.802 0-3.335-.303-4.6-.907C2.632 6.618 2 5.893 2 5.047c0-.835.63-1.551 1.89-2.15C5.15 2.3 6.687 2 8.5 2c1.802 0 3.335.3 4.602.897C14.367 3.496 15 4.212 15 5.047c0 .846-.63 1.571-1.89 2.176-1.26.604-2.797.907-4.61.907Z"/>
  <path fill="url(#b)" d="M8.5 12.047c-1.802 0-3.335-.3-4.6-.898C2.632 10.55 2 9.834 2 9V6.86c0 .508.212.952.636 1.333.424.38.963.701 1.616.96.654.26 1.36.458 2.12.59.76.134 1.469.2 2.128.2.66 0 1.369-.066 2.128-.2.175-.03.347-.064.516-.101a8.039 8.039 0 0 0-2.095 2.395c-.18.006-.363.01-.549.01Z"/>
  <path fill="url(#c)" d="M8 15.992c0-.739.102-1.455.29-2.134a13.34 13.34 0 0 1-1.918-.188 10.35 10.35 0 0 1-2.12-.58c-.653-.26-1.192-.578-1.616-.953-.424-.375-.636-.816-.636-1.324v2.14c0 .835.633 1.551 1.9 2.15 1.146.542 2.513.838 4.1.89Z"/>
  <path fill="url(#d)" fill-rule="evenodd" d="M22 16a6 6 0 1 1-12 0 6 6 0 0 1 12 0Zm-6.262 3.174c.091.05.179.075.262.075a.552.552 0 0 0 .263-.075.387.387 0 0 0 .187-.225l.8-1.75 1.75-.8a.386.386 0 0 0 .225-.188.547.547 0 0 0 .075-.262.552.552 0 0 0-.075-.263.387.387 0 0 0-.225-.187l-1.75-.8-.8-1.75a.387.387 0 0 0-.187-.225.552.552 0 0 0-.263-.075.547.547 0 0 0-.262.075.386.386 0 0 0-.188.225l-.8 1.75-1.75.8a.387.387 0 0 0-.225.187.552.552 0 0 0-.075.263c0 .083.025.17.075.262.05.092.125.154.225.188l1.75.8.8 1.75c.033.1.096.175.188.225Z" clip-rule="evenodd"/>
  <defs>
    <linearGradient id="a" x1="9.556" x2="9.556" y1="22" y2="2" gradientUnits="userSpaceOnUse">
      <stop stop-color="#0FEAEF"/>
      <stop offset="1" stop-color="#008BF0"/>
    </linearGradient>
    <linearGradient id="b" x1="9.556" x2="9.556" y1="22" y2="2" gradientUnits="userSpaceOnUse">
      <stop stop-color="#0FEAEF"/>
      <stop offset="1" stop-color="#008BF0"/>
    </linearGradient>
    <linearGradient id="c" x1="9.556" x2="9.556" y1="22" y2="2" gradientUnits="userSpaceOnUse">
      <stop stop-color="#0FEAEF"/>
      <stop offset="1" stop-color="#008BF0"/>
    </linearGradient>
    <linearGradient id="d" x1="9.556" x2="9.556" y1="22" y2="2" gradientUnits="userSpaceOnUse">
      <stop stop-color="#0FEAEF"/>
      <stop offset="1" stop-color="#008BF0"/>
    </linearGradient>
  </defs>
</svg>
