<svg xmlns="http://www.w3.org/2000/svg" width="24" height="24" fill="none" viewBox="0 0 24 24">
  <path fill="url(#a)" d="M3.375 8c-.367 0-.65-.121-.85-.363-.2-.241-.25-.529-.15-.862.45-1.4 1.275-2.546 2.475-3.437C6.05 2.446 7.433 2 9 2a6.83 6.83 0 0 1 2.763.562A7.012 7.012 0 0 1 14 4.1V3c0-.283.096-.521.288-.713A.967.967 0 0 1 15 2a.97.97 0 0 1 .712.287c.192.192.288.43.288.713v4c0 .283-.096.52-.288.712A.965.965 0 0 1 15 8h-4a.965.965 0 0 1-.712-.288A.965.965 0 0 1 10 7c0-.283.096-.521.288-.713A.967.967 0 0 1 11 6h2a5.708 5.708 0 0 0-1.738-1.45C10.587 4.183 9.833 4 9 4a4.924 4.924 0 0 0-2.925.925 4.76 4.76 0 0 0-1.8 2.4.981.981 0 0 1-.35.487.895.895 0 0 1-.55.188Z"/>
  <path fill="url(#b)" d="M8.265 13.95A8.009 8.009 0 0 0 8 15.932a6.658 6.658 0 0 1-1.762-.494A7.01 7.01 0 0 1 4 13.9V15a.97.97 0 0 1-.287.712A.968.968 0 0 1 3 16a.968.968 0 0 1-.713-.288A.967.967 0 0 1 2 15v-4a.97.97 0 0 1 .287-.713A.97.97 0 0 1 3 10h4a.97.97 0 0 1 .713.287A.97.97 0 0 1 8 11a.97.97 0 0 1-.287.712A.968.968 0 0 1 7 12H5a5.709 5.709 0 0 0 1.738 1.45c.47.256.98.422 1.527.5Z"/>
  <path fill="url(#c)" fill-rule="evenodd" d="M22 16a6 6 0 1 1-12 0 6 6 0 0 1 12 0Zm-7.059-1.918a.661.661 0 0 0-.191.418c0 .077.039.26.191.418.134.14.425.332 1.059.332.966 0 1.675.308 2.141.793.448.467.609 1.034.609 1.457 0 .424-.161.99-.609 1.457-.336.35-.798.607-1.391.724v.32a.75.75 0 0 1-1.5 0v-.32c-.973-.192-1.56-.756-1.83-1.385a.75.75 0 1 1 1.379-.591.747.747 0 0 0 .299.34c.162.102.439.205.902.205.634 0 .925-.192 1.059-.332a.661.661 0 0 0 .191-.418.661.661 0 0 0-.191-.418c-.134-.14-.425-.332-1.059-.332-.966 0-1.675-.308-2.141-.793a2.151 2.151 0 0 1-.609-1.457c0-.423.161-.99.609-1.457.336-.35.798-.607 1.391-.723V12a.75.75 0 0 1 1.5 0v.32c.973.191 1.56.755 1.83 1.385a.75.75 0 1 1-1.379.59.746.746 0 0 0-.299-.34c-.162-.101-.439-.205-.902-.205-.634 0-.925.192-1.059.332Z" clip-rule="evenodd"/>
  <defs>
    <linearGradient id="a" x1="12" x2="12.001" y1="2" y2="22" gradientUnits="userSpaceOnUse">
      <stop stop-color="#FF361B"/>
      <stop offset="1" stop-color="#FF8617"/>
    </linearGradient>
    <linearGradient id="b" x1="12" x2="12.001" y1="2" y2="22" gradientUnits="userSpaceOnUse">
      <stop stop-color="#FF361B"/>
      <stop offset="1" stop-color="#FF8617"/>
    </linearGradient>
    <linearGradient id="c" x1="12" x2="12.001" y1="2" y2="22" gradientUnits="userSpaceOnUse">
      <stop stop-color="#FF361B"/>
      <stop offset="1" stop-color="#FF8617"/>
    </linearGradient>
  </defs>
</svg>
