<svg xmlns="http://www.w3.org/2000/svg" width="24" height="25" fill="none"><path fill="url(#a)" fill-rule="evenodd" d="M11.35 20.102V5.427h-.01a.74.74 0 0 0-.34-.609l-.107-.074c-.122-.085-.241-.168-.373-.246h-.01c-.79-.48-1.87-.989-4.41-1.478A.59.59 0 0 0 5.96 3a.7.7 0 0 0-.48.18.76.76 0 0 0-.26.57v13.715c0 .37.28.67.64.719 1.91.2 3.71.83 5.49 1.918Zm-.002 1.878h.012l.01.02-.022-.02Zm-.378-.25c.212.114.332.21.378.25H5.99c-1.01 0-2.03 0-3.04-.03-1.51 0-1.86-1.079-1.91-1.718L1 5.677c0-.21.05-.41.13-.61.12-.279.32-.509.57-.698.28-.22.6-.34.94-.41.12-.02.53-.04.71.02v15.294c0 .26.23.38.46.4 1.73.14 3.47.549 5.1 1.158.62.23.77.3 1.37.58l.19.085c.178.08.402.179.5.234Zm1.67.25h.012l-.022.02.01-.02Zm.012 0c.046-.04.166-.136.378-.25.098-.055.322-.155.5-.234l.19-.085c.6-.28.75-.35 1.37-.58 1.63-.61 3.37-1.019 5.1-1.159.23-.02.46-.14.46-.4V3.98c.18-.06.59-.04.71-.02.34.07.66.19.94.41.25.19.45.42.57.699.08.2.13.4.13.61l-.04 14.554c-.05.64-.4 1.718-1.91 1.718-1.01.03-2.03.03-3.04.03h-5.358Zm-.002-1.878V5.427c0-.25.14-.479.34-.609l.107-.074c.122-.085.241-.168.373-.246h.01c.79-.48 1.87-.989 4.41-1.478a.59.59 0 0 1 .14-.02c.19 0 .35.06.49.18.09.08.26.27.26.57v13.715c0 .37-.28.67-.64.719-1.91.2-3.71.83-5.49 1.918Z" clip-rule="evenodd"/><defs><linearGradient id="a" x1="8.5" x2="15.986" y1="3" y2="24.982" gradientUnits="userSpaceOnUse"><stop stop-color="#DF7235"/><stop offset="1" stop-color="#E2B926"/></linearGradient></defs></svg>