<svg xmlns="http://www.w3.org/2000/svg" width="24" height="24" fill="none"><path fill="url(#a)" d="M5.527 11.316a.63.63 0 0 1-.835.352l-2.012-.864c-.372-.151-.593-.422-.654-.814-.06-.392.04-.724.322-1.005L5.88 5.458a2.24 2.24 0 0 1 2.022-.623l1.459.311c-.986 1.176-1.78 2.241-2.364 3.206-.503.824-.986 1.809-1.459 2.964h-.01Zm16.226-10.31c.15 0 .302.04.453.111.15.07.281.17.392.281.11.111.201.242.282.392.08.151.11.302.11.453.07 1.738-.291 3.536-1.106 5.395a16.097 16.097 0 0 1-3.43 5.004c-1.007 1.005-1.982 1.809-2.908 2.422-.925.613-2.032 1.176-3.3 1.718-.24.09-.492.14-.744.14a.87.87 0 0 1-.654-.28l-3.5-3.497a.883.883 0 0 1-.282-.653c0-.252.05-.503.14-.744.544-1.246 1.118-2.341 1.721-3.286.604-.944 1.418-1.919 2.424-2.924a16.232 16.232 0 0 1 5.01-3.426c1.861-.814 3.652-1.166 5.392-1.105Zm-7.112 8.34c.432.433.956.644 1.58.644.623 0 1.156-.211 1.578-.643.423-.432.644-.955.644-1.578 0-.623-.21-1.156-.644-1.578a2.18 2.18 0 0 0-1.579-.643c-.623 0-1.157.211-1.58.643a2.175 2.175 0 0 0-.643 1.578c0 .623.211 1.156.644 1.578Zm-2.324 9.938a.635.635 0 0 1 .352-.834c1.157-.472 2.153-.954 2.978-1.457.966-.583 2.042-1.376 3.219-2.361l.282 1.457c.07.372.06.743-.06 1.105a2.36 2.36 0 0 1-.564.935l-3.531 3.527a1.072 1.072 0 0 1-1.006.311c-.392-.07-.664-.301-.815-.673l-.865-2.01h.01ZM2.962 16.28c.654-.653 1.448-.975 2.384-.985.935 0 1.73.312 2.384.965.654.653.976 1.447.976 2.381 0 .935-.322 1.728-.976 2.382-.463.462-1.247.864-2.334 1.205-.905.282-2.102.533-3.591.764a.692.692 0 0 1-.795-.794c.232-1.477.483-2.673.765-3.577.332-1.085.734-1.859 1.207-2.321l-.02-.02Z"/><defs><linearGradient id="a" x1="11.999" x2="11.999" y1="23" y2="1" gradientUnits="userSpaceOnUse"><stop stop-color="#FFA926"/><stop offset="1" stop-color="#BE54FF"/></linearGradient></defs></svg>