<svg xmlns="http://www.w3.org/2000/svg" width="24" height="24" fill="none" viewBox="0 0 24 24">
  <path fill="url(#a)" fill-rule="evenodd" d="M17.122 8.296c-1.139-1.924-3.219-3.1-5.597-3.1-3.599 0-6.405 2.784-6.405 6.425 0 3.642 2.806 6.706 6.405 6.706 2.378 0 4.458-1.4 5.597-3.324h3.262c-1.348 3.59-4.836 6.142-8.859 6.142C6.326 21.145 2 16.881 2 11.621c0-5.26 4.326-9.523 9.525-9.523 4.023 0 7.51 2.608 8.86 6.198H17.12ZM22 10.501l-3.287 2.353H14.59a3.316 3.316 0 0 1-3.09 2.129 3.324 3.324 0 0 1-3.315-3.334A3.324 3.324 0 0 1 11.5 8.316c1.429 0 2.647.91 3.112 2.185H22Z" clip-rule="evenodd"/>
  <defs>
    <linearGradient id="a" x1="12" x2="12" y1="21.145" y2="2.098" gradientUnits="userSpaceOnUse">
      <stop stop-color="#AA76FF"/>
      <stop offset="1" stop-color="#A900C5"/>
    </linearGradient>
  </defs>
</svg>
