<svg xmlns="http://www.w3.org/2000/svg" width="24" height="24" fill="none"><path fill="url(#a)" fill-rule="evenodd" d="M3.967 5.19c-.89.431-1.22 1.416-.76 2.2.46.785 1.56 1.062 2.439.632l8.117-3.989c.89-.43 1.22-1.415.76-2.2-.46-.784-1.56-1.061-2.44-.63L3.967 5.19Zm2.369 5.997c-.47-.784-.17-1.75.66-2.151l7.606-3.73c.83-.402 1.87-.096 2.34.678.47.785.17 1.75-.66 2.152l-7.607 3.73c-.83.402-1.87.096-2.34-.678Zm13.084 3.061c-.37.125-.44.278-.48.622-.16 1.32-.38 1.358-1.419 1.348-.11-.005-.213 0-.311.004-.062.003-.12.006-.179.006-1.14.01-1.56.297-1.87 1.33-.509 1.74-.149 3.357.74 4.916.26.45-.09.507-.24.507-1.46.028-2.392.02-3.56.01a240.81 240.81 0 0 0-1.397-.01c-.48 0-1.137.004-1.795.01-.657.004-1.314.009-1.794.009-.85 0-.82-.67-.63-1.024.36-.67.75-1.32 1.26-1.893.653-.734 1.36-1.424 2.066-2.115.353-.346.706-.691 1.053-1.042.19-.191.35-.392.49-.602.34-.479.21-1.129-.27-1.473l-.688-.485c-.171-.12-.345-.241-.522-.367a.662.662 0 0 1 .09-1.147c.838-.412 2.094-1.026 3.37-1.649h.002c1.569-.767 3.168-1.548 4.055-1.986.38-.191.85 0 1 .383.122.326.228.63.333.935.18.517.358 1.033.616 1.647.049.117.133.289.224.477.133.275.283.584.366.805.17.459.04.583-.5.775l-.01.01Z" clip-rule="evenodd"/><defs><linearGradient id="a" x1="-.998" x2="-.057" y1="2.913" y2="27.125" gradientUnits="userSpaceOnUse"><stop stop-color="#E08617"/><stop offset="1" stop-color="#E2D24E"/></linearGradient></defs></svg>