<svg xmlns="http://www.w3.org/2000/svg" width="24" height="24" fill="none"><path fill="url(#a)" fill-rule="evenodd" d="M19.8 8.492c1.39 1.39 2.368 2.58 2.926 3.563.186.337.274.724.274 1.161 0 .437-.088.824-.274 1.162-.558.982-1.537 2.153-2.926 3.533-1.135 1.122-2.584 1.787-4.355 1.985-.695.576-1.546.903-2.192 1.072a.97.97 0 0 1-1.2-.754l-.004-.02c-.607.397-1.272.635-1.791.774a.96.96 0 0 1-1.184-.734c-.118-.536-.215-1.251-.147-1.976a6.083 6.083 0 0 1-.773-.744 40.223 40.223 0 0 1-1.997-2.442c-.303-.417-.949-.327-1.096.169a6.485 6.485 0 0 1-.743 1.658c-.568.883-1.273 1.479-2.134 1.776-.313.12-.587-.01-.832-.367-.235-.357-.352-.804-.352-1.33V9.454c0-.536.117-.972.352-1.33.245-.367.519-.486.832-.377.861.308 1.566.893 2.134 1.757a6.14 6.14 0 0 1 .743 1.628c.147.496.793.585 1.096.178.5-.684 1.165-1.498 1.997-2.451a6.566 6.566 0 0 1 1.781-1.45c-.078-1.012.088-1.984.255-2.66a.972.972 0 0 1 1.164-.724c1.106.278 2.985.923 3.925 2.432 1.85.178 3.346.853 4.52 2.035Zm-1.918 4.937c.675 0 1.223-.555 1.223-1.24 0-.685-.548-1.241-1.223-1.241-.676 0-1.224.556-1.224 1.24 0 .686.548 1.241 1.224 1.241Z" clip-rule="evenodd"/><defs><linearGradient id="a" x1="12" x2="12" y1="21" y2="3" gradientUnits="userSpaceOnUse"><stop stop-color="#0AECD9"/><stop offset=".876" stop-color="#0092D5"/></linearGradient></defs></svg>