<svg xmlns="http://www.w3.org/2000/svg" width="24" height="24" fill="none"><path fill="url(#a)" fill-rule="evenodd" d="M18.909 5.795c-.73 1.499-2.592 2.288-3.652 2.628a.91.91 0 0 1-.43.03l.93 2.118c-.86.04-1.68.22-2.441.52l-2.281-5.166a9.374 9.374 0 0 0-2.581 3.687 7.284 7.284 0 0 0-2.242-.15c.7-2.148 2.041-4.066 3.932-5.535l.03.02-.38-.85c-.27-.589.03-1.278.66-1.528.62-.24 1.351.04 1.621.63l1.44 3.277c-.03-.6.06-1.23.341-1.809.73-1.498 2.591-2.278 3.652-2.617.46-.15.92.05 1.11.47.42.968 1.01 2.777.29 4.275ZM22 17.505C22 20.542 19.389 23 16.167 23a6.02 6.02 0 0 1-4.192-1.678c1.37-1.25 2.221-3.008 2.221-4.946 0-1.309-.39-2.538-1.06-3.577.25-.15.5-.28.78-.39a6.03 6.03 0 0 1 2.261-.429h.22C19.51 12.09 22 14.518 22 17.475v.03Zm-10.935 2.658c1-.98 1.6-2.318 1.6-3.777h.01a5.3 5.3 0 0 0-.72-2.668c-.13-.22-.28-.43-.44-.62a4.255 4.255 0 0 0-.49-.549 5.85 5.85 0 0 0-2.962-1.548 5.52 5.52 0 0 0-1.23-.13c-.34 0-.66.03-.98.09C3.09 11.4 1 13.658 1 16.386c0 3.027 2.611 5.495 5.833 5.495 1.11 0 2.15-.3 3.041-.81.21-.12.42-.259.62-.399.2-.16.4-.33.57-.51Z" clip-rule="evenodd"/><defs><linearGradient id="a" x1="4.001" x2="12.486" y1="2.998" y2="23.988" gradientUnits="userSpaceOnUse"><stop stop-color="#DD3C3C"/><stop offset="1" stop-color="#ED543F"/></linearGradient></defs></svg>