<svg xmlns="http://www.w3.org/2000/svg" width="24" height="24" fill="none" viewBox="0 0 24 24">
  <path fill="url(#a)" d="M9.5 15.5c.522 0 .981-.266 1.25-.67a1.499 1.499 0 0 0 2.5 0A1.499 1.499 0 0 0 16 14a1.5 1.5 0 0 0-2.75-.83 1.499 1.499 0 0 0-2.5 0A1.499 1.499 0 0 0 8 14a1.5 1.5 0 0 0 1.5 1.5Z"/>
  <path fill="url(#b)" d="M9.097 10.5a1.5 1.5 0 1 1-3 0 1.5 1.5 0 0 1 3 0Z"/>
  <path fill="url(#c)" d="M15.5 9.5a1.5 1.5 0 1 0 0-3 1.5 1.5 0 0 0 0 3Z"/>
  <path fill="url(#d)" d="M14.5 10.5a1.5 1.5 0 1 1-3 0 1.5 1.5 0 0 1 3 0Z"/>
  <path fill="url(#e)" d="M11.5 7.332a1.5 1.5 0 1 0 0-3 1.5 1.5 0 0 0 0 3Z"/>
  <path fill="url(#f)" fill-rule="evenodd" d="M3.34 8.957a2 2 0 0 0 0 2l3.464 6a2 2 0 0 0 1.732 1h6.928a2 2 0 0 0 1.732-1l3.464-6a2 2 0 0 0 0-2l-3.464-6a2 2 0 0 0-1.732-1H8.536a2 2 0 0 0-1.732 1l-3.464 6Zm4.763-5.25-3.464 6a.5.5 0 0 0 0 .5l3.464 6a.5.5 0 0 0 .433.25h6.928a.5.5 0 0 0 .433-.25l3.464-6a.5.5 0 0 0 0-.5l-3.464-6a.5.5 0 0 0-.433-.25H8.536a.5.5 0 0 0-.433.25Z" clip-rule="evenodd"/>
  <path fill="url(#g)" d="M5.12 16.043a.086.086 0 0 0-.146-.005l-1.806 2.71a1 1 0 0 0-.168.555V21a1 1 0 0 0 1 1h16a1 1 0 0 0 1-1v-1.697a1 1 0 0 0-.168-.555l-1.806-2.71a.087.087 0 0 0-.148.005l-.816 1.415a3 3 0 0 1-2.598 1.5H8.536a3 3 0 0 1-2.598-1.5l-.817-1.415Z"/>
  <defs>
    <linearGradient id="a" x1="12" x2="12" y1="22" y2="1.957" gradientUnits="userSpaceOnUse">
      <stop stop-color="#FEC941"/>
      <stop offset="1" stop-color="#FF7527"/>
    </linearGradient>
    <linearGradient id="b" x1="12" x2="12" y1="22" y2="1.957" gradientUnits="userSpaceOnUse">
      <stop stop-color="#FEC941"/>
      <stop offset="1" stop-color="#FF7527"/>
    </linearGradient>
    <linearGradient id="c" x1="12" x2="12" y1="22" y2="1.957" gradientUnits="userSpaceOnUse">
      <stop stop-color="#FEC941"/>
      <stop offset="1" stop-color="#FF7527"/>
    </linearGradient>
    <linearGradient id="d" x1="12" x2="12" y1="22" y2="1.957" gradientUnits="userSpaceOnUse">
      <stop stop-color="#FEC941"/>
      <stop offset="1" stop-color="#FF7527"/>
    </linearGradient>
    <linearGradient id="e" x1="12" x2="12" y1="22" y2="1.957" gradientUnits="userSpaceOnUse">
      <stop stop-color="#FEC941"/>
      <stop offset="1" stop-color="#FF7527"/>
    </linearGradient>
    <linearGradient id="f" x1="12" x2="12" y1="22" y2="1.957" gradientUnits="userSpaceOnUse">
      <stop stop-color="#FEC941"/>
      <stop offset="1" stop-color="#FF7527"/>
    </linearGradient>
    <linearGradient id="g" x1="12" x2="12" y1="22" y2="1.957" gradientUnits="userSpaceOnUse">
      <stop stop-color="#FEC941"/>
      <stop offset="1" stop-color="#FF7527"/>
    </linearGradient>
  </defs>
</svg>
