<svg xmlns="http://www.w3.org/2000/svg" width="24" height="24" fill="none"><path fill="url(#a)" d="M10.45 15.5c.4.4.917.596 1.55.587.633-.008 1.1-.237 1.4-.687l4.225-6.325c.15-.233.13-.446-.063-.637-.191-.192-.404-.213-.637-.063L10.6 12.6c-.45.3-.688.758-.713 1.375-.024.617.163 1.125.563 1.525ZM5.1 20c-.35 0-.683-.083-1-.25a1.897 1.897 0 0 1-.75-.7A9.924 9.924 0 0 1 2 14c0-1.383.263-2.68.788-3.887a10.183 10.183 0 0 1 2.15-3.175 10.143 10.143 0 0 1 3.187-2.15A9.676 9.676 0 0 1 12 4a9.66 9.66 0 0 1 3.887.787 10.183 10.183 0 0 1 3.175 2.15 10.184 10.184 0 0 1 2.15 3.176A9.649 9.649 0 0 1 22 14c0 .933-.113 1.813-.337 2.637-.226.825-.563 1.63-1.013 2.413-.183.3-.433.533-.75.7-.317.167-.65.25-1 .25H5.1Z"/><defs><linearGradient id="a" x1="12" x2="12" y1="20" y2="4" gradientUnits="userSpaceOnUse"><stop stop-color="#A7EE4C"/><stop offset="1" stop-color="#00A0D2"/></linearGradient></defs></svg>