<svg xmlns="http://www.w3.org/2000/svg" width="24" height="24" fill="none" viewBox="0 0 24 24">
  <path fill="url(#a)" fill-rule="evenodd" d="M16.897 9.103a7.69 7.69 0 0 0-.505.902 3.86 3.86 0 0 0-.177.41 12.978 12.978 0 0 0-.787 1.966 9.403 9.403 0 0 0-.368 1.53l-.079.51a13.134 13.134 0 0 0-.104 1.044c-.027.194-.027.364-.027.534v.753c0 .121.007.249.013.376.007.128.014.255.014.377v.145c0 .097 0 .194-.027.292a.323.323 0 0 0-.026.072.328.328 0 0 1-.026.073.386.386 0 0 1-.105.17.802.802 0 0 1-.341.219c-.013 0-.033.006-.053.012-.02.006-.04.012-.052.012H8.632c-.131-.024-.21-.049-.289-.121-.01-.02-.024-.035-.038-.05-.021-.022-.04-.042-.04-.072a.283.283 0 0 0-.013-.073c-.007-.024-.014-.048-.014-.073v-.825a9.401 9.401 0 0 1 .263-1.894c.052-.316.131-.631.236-.947l.079-.23c.026-.08.052-.158.078-.231.027-.073.06-.152.092-.23.033-.08.066-.159.092-.231.026-.122.079-.219.131-.316.079-.194.184-.389.315-.583A7.713 7.713 0 0 1 10.6 11.29c.288-.292.603-.559.944-.826.062-.045.118-.09.17-.134a3.24 3.24 0 0 1 .171-.133l.08-.073c-.237 0-.447-.024-.657-.048-.118-.012-.236-.037-.354-.061s-.236-.049-.354-.06c-.236-.025-.472-.074-.709-.122a.796.796 0 0 0-.118-.024c-.039-.007-.078-.013-.118-.025a.823.823 0 0 0-.118-.024.816.816 0 0 1-.118-.024c-.105-.033-.21-.043-.315-.054a3.138 3.138 0 0 1-.157-.02h-.131a1.3 1.3 0 0 0-.446.074.523.523 0 0 0-.21.097 1.122 1.122 0 0 0-.184.146.66.66 0 0 0-.131.145c-.04.037-.065.089-.086.132-.007.014-.013.027-.02.038-.078.122-.104.243-.13.364a2.6 2.6 0 0 0-.079.632.463.463 0 0 1-.079.267.407.407 0 0 1-.21.145c-.052.025-.13.025-.21.025h-.812c-.236 0-.446-.097-.55-.267-.017-.015-.023-.03-.032-.051a.672.672 0 0 1-.074-.29V5.827a.72.72 0 0 1 .079-.34.44.44 0 0 0 .04-.049.34.34 0 0 1 .039-.049.407.407 0 0 1 .21-.145l.037-.02c.031-.016.055-.029.094-.029.026-.024.078-.024.13-.024h1.025s.025.024.052.024a.198.198 0 0 1 .105.097.741.741 0 0 1 .13.17c.08.122.21.195.342.195a.208.208 0 0 0 .065-.013.216.216 0 0 1 .066-.012c.092-.024.184-.054.276-.085.091-.03.183-.06.275-.085a4.45 4.45 0 0 1 .525-.17 8.817 8.817 0 0 1 1.6-.291h.368c.157 0 .315 0 .472.024.157 0 .315.025.472.049.315.048.604.097.918.17.288.082.595.146.888.208l.162.035.525.109c.177.036.354.073.524.11.04 0 .08.005.119.011a.774.774 0 0 0 .118.012c.025 0 .048.003.071.006.05.005.102.01.191-.006.079 0 .157.006.236.013.079.006.158.012.236.012h.053c.262 0 .498-.073.682-.195.052-.024.131-.097.184-.145 0-.025.052-.049.052-.049l.053-.048a.642.642 0 0 1 .288-.146h.21a.64.64 0 0 1 .289.146c.13.097.236.194.367.315.052.061.111.116.17.17.06.055.119.11.171.17.105.097.131.267.079.413-.079.17-.158.316-.236.437a7.937 7.937 0 0 0-.371.552c-.043.068-.085.135-.128.2-.315.51-.63 1.02-.918 1.53Zm-13.591 2.04a36.606 36.606 0 0 0-.735-.146.903.903 0 0 0-.734.243c-.132.146-.237.34-.263.534l-.009.057a2.654 2.654 0 0 0-.043.429c0 .218-.131.34-.368.34H.5c-.29 0-.499-.194-.499-.461V8.107c0-.122.026-.243.131-.34A.495.495 0 0 1 .5 7.622h.708c.079 0 .131.049.184.097a.525.525 0 0 1 .078.122c.105.121.21.17.368.146a2.44 2.44 0 0 0 .393-.122 7.435 7.435 0 0 1 1.627-.34c.21-.024.446-.024.656 0v3.594c0 .097 0 .17.026.242-.026 0-.052-.006-.079-.012-.026-.006-.052-.012-.078-.012a19.929 19.929 0 0 1-1.076-.194Zm3.281 1.53h.289l.21.024c.236 0 .42-.024.603-.097a11.329 11.329 0 0 0-.446 1.675 8.294 8.294 0 0 0-.157 1.603c0 .194.006.382.013.57.007.188.013.377.013.57 0 .146 0 .292-.052.438a.55.55 0 0 1-.499.316H2.547c-.043 0-.087-.008-.126-.014a.548.548 0 0 0-.084-.01c-.184-.025-.315-.122-.315-.292v-.631a8.85 8.85 0 0 1 .21-1.457c.025-.093.05-.186.073-.278.102-.392.203-.781.373-1.155a5.953 5.953 0 0 1 1.18-1.7c.176-.18.366-.333.559-.49l.203-.165c.236.655.84 1.093 1.626 1.093h.341Zm17.315-4.42-.551-.51a.471.471 0 0 0-.604 0 .361.361 0 0 1-.052.037.347.347 0 0 0-.053.036.836.836 0 0 1-.708.268 3.51 3.51 0 0 1-.709-.073 30.557 30.557 0 0 1-1.6-.34 6.793 6.793 0 0 0-.302-.06c-.098-.02-.197-.037-.301-.062a33.388 33.388 0 0 0-1.653 2.744c-.132.243-.263.51-.368.753l.394.073c.367.072.735.145 1.076.194.078.012.164.018.249.024.085.006.17.012.25.024-.027.025-.053.049-.08.049a7.633 7.633 0 0 0-.97.825 5.954 5.954 0 0 0-1.181 1.7c-.17.373-.271.763-.373 1.155l-.073.278a8.88 8.88 0 0 0-.21 1.457v.63c0 .17.131.268.315.292.023 0 .052.005.084.01.04.007.082.014.126.014h4.014a.55.55 0 0 0 .499-.315c.052-.146.052-.291.052-.437 0-.194-.006-.383-.013-.57a15.29 15.29 0 0 1-.013-.571c0-.535.052-1.069.157-1.603a10.257 10.257 0 0 1 1.05-3.035c.42-.801.918-1.578 1.417-2.33.06-.074.104-.162.145-.242l.038-.075c.079-.145.053-.267-.052-.34Z" clip-rule="evenodd"/>
  <defs>
    <linearGradient id="a" x1="12" x2="12" y1="5" y2="18.5" gradientUnits="userSpaceOnUse">
      <stop stop-color="#5A07E2"/>
      <stop offset="1" stop-color="#A22CFF"/>
    </linearGradient>
  </defs>
</svg>
