<svg xmlns="http://www.w3.org/2000/svg" width="24" height="24" fill="none"><path fill="url(#a)" fill-rule="evenodd" d="M12 2c-1.237 0-2.407.21-3.511.63A7.468 7.468 0 0 0 12 3.5a7.466 7.466 0 0 0 3.511-.87A9.795 9.795 0 0 0 12 2Zm0 3c-1.9 0-3.664-.589-5.116-1.594a9.899 9.899 0 0 0-3.478 3.478A8.959 8.959 0 0 1 5 12c0 1.9-.589 3.663-1.594 5.116a9.884 9.884 0 0 0 3.478 3.478A8.959 8.959 0 0 1 12 19c1.9 0 3.663.589 5.116 1.594a9.904 9.904 0 0 0 3.478-3.478A8.959 8.959 0 0 1 19 12c0-1.9.589-3.663 1.594-5.116a9.883 9.883 0 0 0-3.478-3.478A8.959 8.959 0 0 1 12 5ZM2.63 15.51A9.787 9.787 0 0 1 2 12c0-1.237.21-2.407.63-3.51A7.468 7.468 0 0 1 3.5 12a7.469 7.469 0 0 1-.87 3.51Zm11.714 6.22A10.134 10.134 0 0 1 12 22a9.786 9.786 0 0 1-3.51-.63A7.469 7.469 0 0 1 12 20.5c1.269 0 2.463.314 3.51.87a9.448 9.448 0 0 1-1.166.36ZM21.37 8.49A9.78 9.78 0 0 1 22 12a9.78 9.78 0 0 1-.63 3.51A7.47 7.47 0 0 1 20.5 12a7.47 7.47 0 0 1 .87-3.51ZM12 17.5a5.37 5.37 0 0 1-2.145-.433 5.55 5.55 0 0 1-1.746-1.176 5.55 5.55 0 0 1-1.176-1.746A5.353 5.353 0 0 1 6.5 12c0-.76.144-1.476.433-2.145A5.55 5.55 0 0 1 8.11 8.109a5.558 5.558 0 0 1 1.746-1.176A5.359 5.359 0 0 1 12 6.5c.76 0 1.476.144 2.145.433.67.289 1.251.68 1.746 1.176a5.55 5.55 0 0 1 1.176 1.746A5.37 5.37 0 0 1 17.5 12a5.37 5.37 0 0 1-.433 2.145 5.55 5.55 0 0 1-1.176 1.746 5.55 5.55 0 0 1-1.746 1.176A5.354 5.354 0 0 1 12 17.5Zm.1-2.085c.183 0 .35-.05.5-.15.15-.1.258-.242.325-.425l1.275-4.125a.962.962 0 0 0-.15-.9.95.95 0 0 0-.8-.4h-2.775a.73.73 0 0 0-.725.75.726.726 0 0 0 .75.75h1.9l-1.075 3.45a.773.773 0 0 0 .113.725.773.773 0 0 0 .662.325Z" clip-rule="evenodd"/><defs><linearGradient id="a" x1="14.5" x2="11" y1="23" y2="2" gradientUnits="userSpaceOnUse"><stop stop-color="#C0F550"/><stop offset="1" stop-color="#03C3FF"/></linearGradient></defs></svg>