<svg xmlns="http://www.w3.org/2000/svg" width="24" height="24" fill="none"><path fill="url(#a)" d="M13.55 15.5c-.4.4-.917.596-1.55.587-.633-.008-1.1-.237-1.4-.687L6.375 9.075c-.15-.233-.13-.446.063-.637.191-.192.404-.213.637-.063L13.4 12.6c.45.3.688.758.713 1.375.024.617-.163 1.125-.563 1.525ZM18.9 20c.35 0 .683-.083 1-.25.317-.167.567-.4.75-.7A9.925 9.925 0 0 0 22 14c0-1.383-.262-2.68-.788-3.887a10.184 10.184 0 0 0-2.15-3.175 10.142 10.142 0 0 0-3.187-2.15A9.676 9.676 0 0 0 12 4a9.66 9.66 0 0 0-3.887.787 10.183 10.183 0 0 0-3.175 2.15 10.183 10.183 0 0 0-2.15 3.176A9.649 9.649 0 0 0 2 14c0 .933.112 1.813.337 2.637.225.825.563 1.63 1.013 2.413.183.3.433.533.75.7.317.167.65.25 1 .25h13.8Z"/><defs><linearGradient id="a" x1="12" x2="12" y1="20" y2="4" gradientUnits="userSpaceOnUse"><stop stop-color="#F469F7"/><stop offset="1" stop-color="#206BFE"/></linearGradient></defs></svg>