<svg xmlns="http://www.w3.org/2000/svg" width="24" height="24" fill="none" viewBox="0 0 24 24">
  <path fill="url(#a)" d="m4.027 8.67.92-3.662a.898.898 0 0 1 .796-.675l3.972-.33a.9.9 0 0 1 .793.355l2.256 2.997 2.675-3.046a.9.9 0 0 1 .765-.301l2.987.297c.46.046.809.431.809.891V18.83a.897.897 0 0 1-.824.892l-3.31.275a.897.897 0 0 1-.974-.892v-7.51l-1.461 2.04a.9.9 0 0 1-1.414.062l-1.807-2.101v7.509c0 .523-.45.935-.973.892l-3.31-.275a.897.897 0 0 1-.825-.892V9.9l-.487-.163a.895.895 0 0 1-.588-1.066Z"/>
  <defs>
    <linearGradient id="a" x1="12" x2="12" y1="4" y2="20" gradientUnits="userSpaceOnUse">
      <stop stop-color="#DA8A2C"/>
      <stop offset="1" stop-color="#ECE426"/>
    </linearGradient>
  </defs>
</svg>
