<svg xmlns="http://www.w3.org/2000/svg" width="24" height="24" fill="none" viewBox="0 0 24 24">
  <path fill="url(#a)" fill-rule="evenodd" d="M3.795 17.244c1.53 1.53 3.397 2.295 5.602 2.295 2.204 0 4.071-.765 5.601-2.295 1.53-1.53 2.295-3.397 2.295-5.602 0-2.204-.765-4.071-2.295-5.601-1.53-1.53-3.397-2.295-5.601-2.295-2.205 0-4.072.765-5.602 2.295C2.265 7.57 1.5 9.438 1.5 11.642c0 2.205.765 4.072 2.295 5.602Zm3.38-8.978h4.69c.272 0 .493.221.493.494v4.217c0 .846-.639 2.537-3.193 2.537-2.17 0-2.872-1.308-2.998-2.257-.034-.258.185-.46.445-.46h1.547c.164 0 .296.136.359.287.09.217.288.437.647.437.532 0 .71-.362.71-.544V10.26h-2.7a.494.494 0 0 1-.493-.493V8.76c0-.273.22-.494.493-.494Z" clip-rule="evenodd"/>
  <path fill="url(#b)" d="m18.034 5.967.79 1.727c.081.18.23.271.443.271.214 0 .362-.09.445-.271l.79-1.727 1.727-.79c.18-.082.271-.23.271-.444s-.09-.362-.271-.445l-1.728-.79-.79-1.727c-.082-.18-.23-.271-.444-.271-.213 0-.362.09-.444.271l-.79 1.728-1.727.79c-.18.082-.271.23-.271.444s.09.362.271.444l1.727.79Z"/>
  <path fill="url(#c)" d="m18.034 19.785.79 1.728c.081.18.23.271.443.271.214 0 .362-.09.445-.271l.79-1.728 1.727-.79c.18-.081.271-.23.271-.443 0-.214-.09-.362-.271-.444l-1.728-.79-.79-1.728c-.082-.18-.23-.271-.444-.271-.213 0-.362.09-.444.271l-.79 1.728-1.727.79c-.18.082-.271.23-.271.444s.09.362.271.444l1.727.79Z"/>
  <defs>
    <linearGradient id="a" x1="12" x2="12" y1="21.785" y2="1.5" gradientUnits="userSpaceOnUse">
      <stop stop-color="#FF69C3"/>
      <stop offset="1" stop-color="#8E61FF"/>
    </linearGradient>
    <linearGradient id="b" x1="12" x2="12" y1="21.785" y2="1.5" gradientUnits="userSpaceOnUse">
      <stop stop-color="#FF69C3"/>
      <stop offset="1" stop-color="#8E61FF"/>
    </linearGradient>
    <linearGradient id="c" x1="12" x2="12" y1="21.785" y2="1.5" gradientUnits="userSpaceOnUse">
      <stop stop-color="#FF69C3"/>
      <stop offset="1" stop-color="#8E61FF"/>
    </linearGradient>
  </defs>
</svg>
