<svg xmlns="http://www.w3.org/2000/svg" width="24" height="24" fill="none" viewBox="0 0 24 24">
  <path fill="url(#a)" d="M9 18h5.5c.283 0 .546-.07.788-.212.241-.142.412-.338.512-.588l2.1-4.9a1.43 1.43 0 0 0 .075-.25A1.27 1.27 0 0 0 18 11.8V11a.968.968 0 0 0-.288-.713A.967.967 0 0 0 17 10h-4.6l.6-3.4a.913.913 0 0 0-.025-.475 1.013 1.013 0 0 0-.25-.4L12 5l-4.6 5a1.331 1.331 0 0 0-.3.45c-.067.167-.1.35-.1.55v5c0 .55.196 1.021.588 1.413.391.391.862.587 1.412.587Zm3 4a9.733 9.733 0 0 1-3.9-.788 10.092 10.092 0 0 1-3.175-2.137c-.9-.9-1.612-1.958-2.137-3.175A9.733 9.733 0 0 1 2 12a9.74 9.74 0 0 1 .788-3.9 10.092 10.092 0 0 1 2.137-3.175c.9-.9 1.958-1.613 3.175-2.138A9.743 9.743 0 0 1 12 2a9.74 9.74 0 0 1 3.9.787 10.105 10.105 0 0 1 3.175 2.138c.9.9 1.612 1.958 2.137 3.175A9.733 9.733 0 0 1 22 12a9.733 9.733 0 0 1-.788 3.9 10.092 10.092 0 0 1-2.137 3.175c-.9.9-1.958 1.612-3.175 2.137A9.733 9.733 0 0 1 12 22Z"/>
  <defs>
    <linearGradient id="a" x1="12" x2="12" y1="22" y2="2" gradientUnits="userSpaceOnUse">
      <stop stop-color="#FD1C88"/>
      <stop offset="1" stop-color="#BB007B"/>
    </linearGradient>
  </defs>
</svg>
