<svg xmlns="http://www.w3.org/2000/svg" width="24" height="24" fill="none" viewBox="0 0 24 24">
  <path fill="url(#a)" d="M10.503 12.966A.19.19 0 0 0 10.5 13c0 .137.146.255.438.353.291.098.645.147 1.062.147.417 0 .77-.049 1.063-.147.291-.098.437-.216.437-.353a.19.19 0 0 0-.003-.034L12.773 5h1.812a1.5 1.5 0 1 0 0-1h-1.903l-.137-1.502a.548.548 0 0 0-1.09 0L11.318 4H9.415a1.5 1.5 0 1 0 0 1h1.812l-.724 7.966Z"/>
  <path fill="url(#b)" d="M12 22c-2.778 0-5.056-.436-7-1.306-1.944-.87-3-1.917-3-3.139v-2.778c0 .815.38 1.505 1.139 2.07.76.565 1.667 1.023 2.722 1.375 1.056.352 2.153.606 3.292.764 1.139.157 2.088.236 2.847.236.76 0 1.708-.079 2.847-.236a18.346 18.346 0 0 0 3.292-.764c1.055-.352 1.963-.81 2.722-1.375.76-.565 1.139-1.255 1.139-2.07v2.778c0 1.222-.972 2.269-2.917 3.139C17.14 21.564 14.778 22 12 22Z"/>
  <path fill="url(#c)" fill-rule="evenodd" d="M12 17c-2.778 0-5.139-.49-7.083-1.47C2.972 14.552 2 13.374 2 12c0-1.376.972-2.553 2.917-3.532 1.456-.733 3.146-1.192 5.07-1.376l-.6 4.196a7.085 7.085 0 0 0-.929.299C7.486 11.978 7 12.449 7 12.999c0 .55.486 1.021 1.458 1.413.973.391 2.153.587 3.542.587 1.389 0 2.57-.196 3.542-.587.972-.392 1.458-.863 1.458-1.413s-.486-1.02-1.458-1.412a7.083 7.083 0 0 0-.93-.3l-.599-4.195c1.924.184 3.614.643 5.07 1.376 1.945.98 2.917 2.156 2.917 3.531s-.972 2.552-2.917 3.531C17.14 16.51 14.778 17 12 17Zm7-7a1 1 0 1 1-2 0 1 1 0 0 1 2 0Z" clip-rule="evenodd"/>
  <defs>
    <linearGradient id="a" x1="12" x2="12" y1="21.999" y2="2" gradientUnits="userSpaceOnUse">
      <stop stop-color="#FF6161"/>
      <stop offset="1" stop-color="#E0005E"/>
    </linearGradient>
    <linearGradient id="b" x1="12" x2="12" y1="21.999" y2="2" gradientUnits="userSpaceOnUse">
      <stop stop-color="#FF6161"/>
      <stop offset="1" stop-color="#E0005E"/>
    </linearGradient>
    <linearGradient id="c" x1="12" x2="12" y1="21.999" y2="2" gradientUnits="userSpaceOnUse">
      <stop stop-color="#FF6161"/>
      <stop offset="1" stop-color="#E0005E"/>
    </linearGradient>
  </defs>
</svg>
