<svg xmlns="http://www.w3.org/2000/svg" width="24" height="24" fill="none" viewBox="0 0 24 24">
  <path fill="url(#a)" d="M18.967 12.616c-1.619-4.178-7.385-4.404-5.992-10.477a.52.52 0 0 0-.774-.563C8.457 3.768 5.764 8.16 8.023 13.916c.186.472-.371.912-.773.605-1.867-1.403-2.063-3.42-1.898-4.865.062-.532-.64-.788-.939-.348C3.712 10.373 3 12.094 3 14.685c.392 5.735 5.27 7.497 7.024 7.722 2.507.317 5.22-.143 7.17-1.915 2.145-1.977 2.929-5.131 1.773-7.876Zm-9.572 5.152c1.486-.359 2.249-1.424 2.455-2.366.34-1.465-.99-2.898-.093-5.213.34 1.915 3.373 3.113 3.373 5.203.083 2.59-2.744 4.813-5.735 2.376Z"/>
  <defs>
    <linearGradient id="a" x1="11.25" x2="11.25" y1="1.5" y2="22.5" gradientUnits="userSpaceOnUse">
      <stop stop-color="#E75808"/>
      <stop offset="1" stop-color="#FFAF36"/>
    </linearGradient>
  </defs>
</svg>
