<svg xmlns="http://www.w3.org/2000/svg" width="24" height="24" fill="none" viewBox="0 0 24 24">
  <path fill="url(#a)" fill-rule="evenodd" d="M5.812 4c.173-.717.386-1.318.559-1.72A.471.471 0 0 1 6.809 2h10.382c.19 0 .363.106.438.28.173.402.386 1.003.559 1.72h1.923c.334 0 .79.104 1.185.423.437.354.704.898.704 1.577v1.5c0 .635-.2 2.524-1.9 3.8-.708.53-1.642.818-2.37.977a9.507 9.507 0 0 1-1.692.223A8.345 8.345 0 0 1 14 14c0 .5 0 2 1 3.5H9c1-1.5 1-3 1-3.5a8.346 8.346 0 0 1-2.038-1.5 9.508 9.508 0 0 1-1.692-.223c-.728-.16-1.662-.446-2.37-.977C2.2 10.024 2 8.135 2 7.5V6c0-.68.267-1.223.704-1.577A1.91 1.91 0 0 1 3.889 4h1.923ZM18.5 6.5c0-.168-.005-.335-.014-.5H20v1.5c0 .365-.134 1.476-1.1 2.2-.297.223-.756.408-1.27.544.608-1.26.87-2.585.87-3.744ZM5.514 6H4v1.5c0 .365.134 1.476 1.1 2.2.297.223.756.408 1.27.544A8.736 8.736 0 0 1 5.5 6.5c0-.168.005-.335.014-.5ZM12 9.724l1.5 1.15c.2.15.404.154.613.012.208-.142.27-.329.187-.562l-.6-1.9 1.675-1.3c.183-.134.237-.317.163-.55-.076-.234-.238-.35-.488-.35H13.1l-.625-1.925c-.084-.234-.242-.35-.475-.35-.234 0-.392.116-.475.35L10.9 6.224H8.925c-.234 0-.388.112-.462.337a.475.475 0 0 0 .162.563l1.625 1.3-.6 1.925c-.084.233-.02.42.188.562.208.142.403.138.587-.012L12 9.724Z" clip-rule="evenodd"/>
  <path fill="url(#b)" d="M8.5 18.5a2 2 0 0 0-2 2 .5.5 0 0 0 .5.5h10a.5.5 0 0 0 .5-.5 2 2 0 0 0-2-2h-7Z"/>
  <defs>
    <linearGradient id="a" x1="14.152" x2="14.152" y1="20.999" y2="2" gradientUnits="userSpaceOnUse">
      <stop stop-color="#F9AE55"/>
      <stop offset="1" stop-color="#E2007A"/>
    </linearGradient>
    <linearGradient id="b" x1="14.152" x2="14.152" y1="20.999" y2="2" gradientUnits="userSpaceOnUse">
      <stop stop-color="#F9AE55"/>
      <stop offset="1" stop-color="#E2007A"/>
    </linearGradient>
  </defs>
</svg>
