<svg width="25" height="24" fill="none" viewBox="0 0 24 24" xmlns="http://www.w3.org/2000/svg">
    <path fill-rule="evenodd" clip-rule="evenodd"
          d="M10.044 21.783c.672.142 1.368.217 2.081.217 5.523 0 10-4.477 10-10s-4.477-10-10-10c-2.505 0-4.794.92-6.549 2.442a1.793 1.793 0 0 0-.038-.003l-.003.039A9.976 9.976 0 0 0 2.125 12c0 4.782 3.356 8.78 7.841 9.766l.017.042.061-.025ZM20.625 12c0 .169-.005.337-.015.503a10.503 10.503 0 0 1-1.026-.449 269.2 269.2 0 0 0-.781-3.381l.623-1.029A8.46 8.46 0 0 1 20.625 12Zm-8.311 8.498a8.458 8.458 0 0 0 3.758-.968 1.09 1.09 0 0 0-.102-.406c-.81.357-1.97.73-3.195.915a3.879 3.879 0 0 1-.461.459Zm-2.4-.289c.626-.282 1.049-.548 1.337-.778a7.666 7.666 0 0 1-1.591-1.876 8.208 8.208 0 0 1-2.49-.638l-.949 1.198a8.49 8.49 0 0 0 3.692 2.094Zm10.472-6.198a8.503 8.503 0 0 1-2.983 4.652 2.61 2.61 0 0 0-.268-.516c.334-.937.653-2.475.738-3.085.3-.261.566-.548.797-.827.193-.233.37-.471.525-.703l.173.08c.318.142.713.306 1.018.399ZM7.298 15.296c-.215-.4-.436-.946-.626-1.514a13.68 13.68 0 0 1-.298-1.018c.36-1.17 1.27-2.106 1.89-2.585.781.172 2.002.443 3.115.8l.718 3.062c-.674.777-1.488 1.55-2.025 2.044-1.394-.098-2.332-.515-2.774-.79Zm-.171-8.189a9.474 9.474 0 0 0-.007 2.069c-.589.496-1.297 1.25-1.791 2.203a13.125 13.125 0 0 1-.813-.313 18.427 18.427 0 0 1-.794-.355 8.476 8.476 0 0 1 2.326-4.654c.15.038.316.085.49.14.253.082.484.172.68.266a9.66 9.66 0 0 0-.091.644ZM7.42 4.92c.17.065.345.14.517.226 1.464-.811 3.377-1.177 4.191-1.255.095-.133.2-.262.308-.384a8.46 8.46 0 0 0-5.015 1.413Zm6.863.487c-.26-.26-.546-.53-.833-.777.087-.109.19-.221.3-.333.205-.205.413-.38.579-.507a8.5 8.5 0 0 1 4.134 2.548l-.768 1.268a8.977 8.977 0 0 0-1.34-.507 10.79 10.79 0 0 0-.754-.191.742.742 0 0 0-.052-.08c-.26-.348-.74-.894-1.266-1.42Zm3.084 3.717c.218.906.584 2.503.76 3.298-.167.27-.375.57-.614.858a5.187 5.187 0 0 1-.827.815c-.949-.143-2.36-.448-3.188-.644l-.66-2.817c.531-.613 1.437-1.573 2.152-2.319.281.051.604.124.942.223.495.145.995.34 1.435.586ZM5.977 16.006l-.755.954A8.457 8.457 0 0 1 3.63 12.32c.098.043.2.087.305.13.28.117.609.249.907.35.088.419.235.944.406 1.458.193.578.443 1.22.728 1.75Zm2.64-8.735c.041-.37.098-.669.145-.867 1.074-.569 2.485-.884 3.265-.992.352.254.78.637 1.196 1.054.27.27.519.538.723.77a84.106 84.106 0 0 0-2.144 2.304c-1.174-.374-2.454-.659-3.218-.827a8.221 8.221 0 0 1 .034-1.442Zm2.545 9.85c.57-.526 1.425-1.344 2.137-2.177.792.184 2.016.448 2.966.602-.128.632-.325 1.463-.516 2.022-.574.305-1.797.772-3.163.982a1.42 1.42 0 0 1-.084-.05 3.928 3.928 0 0 1-.522-.429 6.377 6.377 0 0 1-.818-.95Z"
          fill="currentColor"/>
</svg>
