<svg fill="none" xmlns="http://www.w3.org/2000/svg" viewBox="0 0 24 24">
    <path d="M8.28 11a.96.96 0 0 1-.88-.51.9.9 0 0 1 .02-1.01l3.73-6.08c.2-.32.48-.47.85-.47s.65.15.85.47l3.72 6.08a.9.9 0 0 1 .03 1c-.2.35-.5.52-.88.52H8.27Zm9.22 11a4.34 4.34 0 0 1-3.19-1.31A4.34 4.34 0 0 1 13 17.5c0-1.25.44-2.31 1.31-3.19a4.34 4.34 0 0 1 3.19-1.3c1.25 0 2.31.43 3.19 1.3a4.34 4.34 0 0 1 1.31 3.2c0 1.24-.44 2.3-1.31 3.18A4.34 4.34 0 0 1 17.5 22ZM4 21.5a.97.97 0 0 1-.71-.29.97.97 0 0 1-.29-.7v-6c0-.3.1-.53.29-.72.19-.2.43-.29.71-.29h6c.28 0 .52.1.71.29.2.19.29.43.29.71v6c0 .28-.1.52-.29.71-.19.2-.43.3-.71.3H4ZM17.5 20c.7 0 1.3-.24 1.77-.72.49-.49.73-1.08.73-1.78s-.24-1.3-.73-1.77A2.41 2.41 0 0 0 17.5 15c-.7 0-1.3.24-1.78.73A2.41 2.41 0 0 0 15 17.5c0 .7.24 1.3.72 1.78.49.48 1.08.72 1.78.72ZM5 19.5h4v-4H5v4ZM10.05 9h3.9L12 5.85 10.05 9Z"
          fill="currentColor"/>
</svg>
