<svg width="24" height="24" viewBox="0 0 24 24" fill="none" xmlns="http://www.w3.org/2000/svg">
<path d="M5.875 13H18.125C18.6062 13 19 12.55 19 12C19 11.45 18.6062 11 18.125 11H5.875C5.39375 11 5 11.45 5 12C5 12.55 5.39375 13 5.875 13Z" fill="white"/>
<path d="M5.875 13H18.125C18.6062 13 19 12.55 19 12C19 11.45 18.6062 11 18.125 11H5.875C5.39375 11 5 11.45 5 12C5 12.55 5.39375 13 5.875 13Z" fill="url(#paint0_linear)"/>
<path d="M9.875 18H14.125C14.6062 18 15 17.55 15 17C15 16.45 14.6062 16 14.125 16H9.875C9.39375 16 9 16.45 9 17C9 17.55 9.39375 18 9.875 18Z" fill="white"/>
<path d="M9.875 18H14.125C14.6062 18 15 17.55 15 17C15 16.45 14.6062 16 14.125 16H9.875C9.39375 16 9 16.45 9 17C9 17.55 9.39375 18 9.875 18Z" fill="url(#paint1_linear)"/>
<path d="M3 7C3 7.55 3.45 8 4 8H20C20.55 8 21 7.55 21 7C21 6.45 20.55 6 20 6H4C3.45 6 3 6.45 3 7Z" fill="white"/>
<path d="M3 7C3 7.55 3.45 8 4 8H20C20.55 8 21 7.55 21 7C21 6.45 20.55 6 20 6H4C3.45 6 3 6.45 3 7Z" fill="url(#paint2_linear)"/>
<defs>
<linearGradient id="paint0_linear" x1="12" y1="6" x2="12" y2="18" gradientUnits="userSpaceOnUse">
<stop stop-color="white"/>
<stop offset="1" stop-color="white" stop-opacity="0"/>
</linearGradient>
<linearGradient id="paint1_linear" x1="12" y1="6" x2="12" y2="18" gradientUnits="userSpaceOnUse">
<stop stop-color="white"/>
<stop offset="1" stop-color="white" stop-opacity="0"/>
</linearGradient>
<linearGradient id="paint2_linear" x1="12" y1="6" x2="12" y2="18" gradientUnits="userSpaceOnUse">
<stop stop-color="white"/>
<stop offset="1" stop-color="white" stop-opacity="0"/>
</linearGradient>
</defs>
</svg>
