<svg width="24" height="24" viewBox="0 0 24 24" fill="none" xmlns="http://www.w3.org/2000/svg">
    <path d="M12.625 2.625a.625.625 0 1 0-1.25 0v3.75a.625.625 0 1 0 1.25 0v-3.75ZM21.375 12.625a.625.625 0 1 0 0-1.25h-3.75a.625.625 0 1 0 0 1.25h3.75ZM12 17c.345 0 .625.28.625.625v3.75a.625.625 0 1 1-1.25 0v-3.75c0-.345.28-.625.625-.625ZM6.375 12.625a.625.625 0 1 0 0-1.25h-3.75a.625.625 0 1 0 0 1.25h3.75ZM19.071 19.071a.625.625 0 0 1-.884 0l-2.651-2.652a.625.625 0 0 1 .883-.883l2.652 2.651a.625.625 0 0 1 0 .884ZM7.58 8.464a.625.625 0 1 0 .884-.883L5.813 4.929a.625.625 0 0 0-.884.884L7.58 8.464ZM4.929 19.071a.625.625 0 0 1 0-.884l2.652-2.652a.625.625 0 0 1 .883.884l-2.651 2.652a.625.625 0 0 1-.884 0ZM15.536 7.58a.625.625 0 0 0 .883.884l2.652-2.651a.625.625 0 1 0-.884-.884L15.535 7.58Z"
          fill="currentColor"/>
</svg>
