<svg width="24" height="24" fill="currentColor" xmlns="http://www.w3.org/2000/svg"><path d="M22.659 11.409h-2.953a7.766 7.766 0 0 0-7.173-7.174V1.283a.563.563 0 0 0-1.125 0v2.952a7.766 7.766 0 0 0-7.174 7.174H1.282a.563.563 0 0 0 0 1.125h2.952a7.766 7.766 0 0 0 7.174 7.173v2.953a.563.563 0 0 0 1.125 0v-2.953a7.766 7.766 0 0 0 7.173-7.173h2.953a.563.563 0 0 0 0-1.125Zm-10.126 7.169v-1.796a.563.563 0 0 0-1.125 0v1.796a6.639 6.639 0 0 1-6.044-6.044H7.16a.563.563 0 0 0 0-1.125H5.364a6.643 6.643 0 0 1 6.044-6.044v1.796a.563.563 0 0 0 1.125 0V5.365a6.643 6.643 0 0 1 6.044 6.044H16.78a.563.563 0 0 0 0 1.125h1.796a6.639 6.639 0 0 1-6.044 6.044Z" fill="#000"/><path fill-rule="evenodd" clip-rule="evenodd" d="M20.158 10.909h2.5a1.063 1.063 0 0 1 0 2.125h-2.5a8.266 8.266 0 0 1-7.125 7.125v2.5a1.063 1.063 0 0 1-2.125 0v-2.5a8.266 8.266 0 0 1-7.125-7.125h-2.5a1.063 1.063 0 0 1 0-2.125h2.5a8.266 8.266 0 0 1 7.125-7.125v-2.5a1.063 1.063 0 0 1 2.125 0v2.5a8.266 8.266 0 0 1 7.125 7.125Zm-.452.5a7.766 7.766 0 0 0-7.173-7.174V1.283a.563.563 0 0 0-1.125 0v2.952a7.766 7.766 0 0 0-7.174 7.174H1.282a.563.563 0 0 0 0 1.125h2.952a7.766 7.766 0 0 0 7.174 7.173v2.953a.563.563 0 0 0 1.125 0v-2.953a7.766 7.766 0 0 0 7.173-7.173h2.953a.563.563 0 0 0 0-1.125h-2.953Zm-7.173 7.169a6.639 6.639 0 0 0 6.044-6.044H16.78a.563.563 0 0 1 0-1.125h1.796a6.644 6.644 0 0 0-6.044-6.044v1.796a.563.563 0 0 1-1.125 0V5.365a6.644 6.644 0 0 0-6.044 6.044H7.16a.563.563 0 0 1 0 1.125H5.364a6.639 6.639 0 0 0 6.044 6.044v-1.796a.563.563 0 0 1 1.125 0v1.796Zm.5-.57a6.14 6.14 0 0 0 4.974-4.974h-1.226a1.063 1.063 0 0 1 0-2.125h1.226a6.144 6.144 0 0 0-4.974-4.974V7.16a1.063 1.063 0 0 1-2.125 0V5.935a6.144 6.144 0 0 0-4.974 4.974H7.16a1.063 1.063 0 0 1 0 2.125H5.933a6.14 6.14 0 0 0 4.975 4.974v-1.226a1.063 1.063 0 0 1 2.125 0v1.226Z" fill="currentColor"/></svg>
