<svg width="20" height="18" viewBox="0 0 20 18" fill="none" xmlns="http://www.w3.org/2000/svg">
    <path d="M16.5458 3.9635L17.1565 5.49635C17.2201 5.65693 17.3346 5.73723 17.5 5.73723C17.6654 5.73723 17.7799 5.65693 17.8435 5.49635L18.4542 3.9635L19.7901 3.26277C19.93 3.18978 20 3.05839 20 2.86861C20 2.67883 19.93 2.54745 19.7901 2.47445L18.4542 1.77372L17.8435 0.240876C17.7799 0.0802919 17.6654 0 17.5 0C17.3346 0 17.2201 0.0802919 17.1565 0.240876L16.5458 1.77372L15.2099 2.47445C15.07 2.54745 15 2.67883 15 2.86861C15 3.05839 15.07 3.18978 15.2099 3.26277L16.5458 3.9635Z" fill="#B6BDCC"/>
    <path d="M16.5458 16.2263L17.1565 17.7591C17.2201 17.9197 17.3346 18 17.5 18C17.6654 18 17.7799 17.9197 17.8435 17.7591L18.4542 16.2263L19.7901 15.5255C19.93 15.4526 20 15.3212 20 15.1314C20 14.9416 19.93 14.8102 19.7901 14.7372L18.4542 14.0365L17.8435 12.5036C17.7799 12.3431 17.6654 12.2628 17.5 12.2628C17.3346 12.2628 17.2201 12.3431 17.1565 12.5036L16.5458 14.0365L15.2099 14.7372C15.07 14.8102 15 14.9416 15 15.1314C15 15.3212 15.07 15.4526 15.2099 15.5255L16.5458 16.2263Z" fill="#B6BDCC"/>
    <path d="M10.5008 5.5H5.81162C5.53905 5.5 5.31808 5.72096 5.31808 5.99354V6.99973C5.31808 7.2723 5.53905 7.49326 5.81162 7.49326H8.51099V10.2114C8.51099 10.3926 8.33361 10.755 7.80146 10.755C7.44244 10.755 7.2449 10.535 7.15436 10.3177C7.09146 10.1668 6.95935 10.0301 6.7958 10.0301H5.24831C4.98822 10.0301 4.76935 10.2334 4.80353 10.4912C4.92935 11.4403 5.63133 12.7482 7.80145 12.7482C10.3558 12.7482 10.9944 11.057 10.9944 10.2114V5.99354C10.9944 5.72096 10.7734 5.5 10.5008 5.5Z" fill="#B6BDCC"/>
    <path fill-rule="evenodd" clip-rule="evenodd" d="M8 15C11.3137 15 14 12.3137 14 9C14 5.68629 11.3137 3 8 3C4.68629 3 2 5.68629 2 9C2 12.3137 4.68629 15 8 15ZM8 17C12.4183 17 16 13.4183 16 9C16 4.58172 12.4183 1 8 1C3.58172 1 0 4.58172 0 9C0 13.4183 3.58172 17 8 17Z" fill="#B6BDCC"/>
</svg>
