<svg xmlns="http://www.w3.org/2000/svg" width="64" height="64" viewBox="0 0 64 64" fill="none"><path fill="#fff" d="m58.71 49.2-.13-.17a16.9 16.9 0 0 0-2.07-2.13c-2.38-2.19-5.08-4.67-5.82-15.53-.1-1.4-.15-2.43-.2-3.33-.11-1.92-.2-3.31-.51-6.32a17.7 17.7 0 0 0-13.9-15.4V4.3a4.3 4.3 0 0 0-8.6 0v2.03a17.7 17.7 0 0 0-13.9 15.4c-.32 3-.4 4.39-.51 6.3-.05.91-.1 1.94-.2 3.34-.74 10.86-3.44 13.34-5.83 15.53-.7.64-1.43 1.3-2.07 2.13l-.13.17c-.57.72-1.91 2.4-.94 4.67 1.13 2.66 3.77 2.66 4.64 2.66h.05l12.92-.01h3.2a7.07 7.07 0 0 0 14.13 0h3.2l12.92.01h.06c.86 0 3.5 0 4.64-2.66.97-2.28-.38-3.95-.95-4.67ZM30.15 4.3c0-.9.72-1.63 1.63-1.63.9 0 1.63.73 1.63 1.63V6a27.95 27.95 0 0 0-1.56-.07h-.15c-.39 0-.78.02-1.19.04l-.36.02V4.3Zm1.63 56.59a4.4 4.4 0 0 1-4.4-4.37h8.8a4.4 4.4 0 0 1-4.4 4.37Zm25.44-8.06c-.42.97-1.27 1.05-2.2 1.05H8.54c-.94 0-1.79-.08-2.2-1.05-.4-.92.2-1.51.72-2.18 2.48-3.2 7.42-4.13 8.45-19.1.29-4.35.24-5.21.7-9.54.9-8.35 7.99-13.33 14.4-13.39l1.16-.06 1.17.06a14.92 14.92 0 0 1 14.4 13.39c.47 4.33.41 5.19.7 9.54 1.03 14.97 5.97 15.9 8.45 19.1.52.67 1.12 1.26.73 2.18Z"/></svg>
