<svg width="24" height="24" viewBox="0 0 24 24" fill="none" xmlns="http://www.w3.org/2000/svg">
<path d="M12.0015 22C13.1148 22 14.0257 21.0769 14.0257 19.9487H9.97729C9.97729 21.0769 10.8882 22 12.0015 22ZM18.0742 15.8462V10.7179C18.0742 7.56923 16.4244 4.93333 13.5197 4.2359V3.53846C13.5197 2.68718 12.8416 2 12.0015 2C11.1615 2 10.4833 2.68718 10.4833 3.53846V4.2359C7.58871 4.93333 5.92885 7.55897 5.92885 10.7179V15.8462L4.11425 17.685C3.98003 17.821 3.90463 18.0055 3.90463 18.1978C3.90463 18.5984 4.22505 18.9231 4.6203 18.9231H19.3827C19.778 18.9231 20.0984 18.5984 20.0984 18.1978C20.0984 18.0055 20.023 17.821 19.8888 17.685L18.0742 15.8462ZM16.0499 16.8718H7.95307V10.7179C7.95307 8.17436 9.48135 6.10256 12.0015 6.10256C14.5217 6.10256 16.0499 8.17436 16.0499 10.7179V16.8718Z" fill="white"/>
</svg>
