<svg fill="none" xmlns="http://www.w3.org/2000/svg" viewBox="0 0 24 24">
    <path d="M7.29 3.71c.19.2.43.29.71.29h8c.28 0 .52-.1.71-.29.2-.19.29-.43.29-.71 0-.28-.1-.52-.29-.71A.97.97 0 0 0 16 2H8c-.28 0-.52.1-.71.29-.2.19-.29.43-.29.71 0 .28.1.52.29.71ZM4.29 6.71c.19.2.43.29.71.29h14c.28 0 .52-.1.71-.29.2-.19.29-.43.29-.71 0-.28-.1-.52-.29-.71A.97.97 0 0 0 19 5H5c-.28 0-.52.1-.71.29-.2.19-.29.43-.29.71 0 .28.1.52.29.71ZM11.85 17.27l1.5 1.16c.2.14.4.15.61 0 .21-.13.27-.32.19-.55l-.6-1.9 1.68-1.3c.18-.14.23-.32.16-.55-.08-.24-.24-.36-.49-.36h-1.95l-.62-1.92c-.09-.23-.25-.35-.48-.35-.23 0-.4.12-.47.35l-.63 1.93H8.78c-.24 0-.4.1-.47.33a.48.48 0 0 0 .17.57l1.62 1.3-.6 1.92c-.08.23-.02.42.19.56.2.14.4.14.59-.01l1.57-1.18Z"
          fill="currentColor"/>
    <path fill-rule="evenodd" clip-rule="evenodd"
          d="M2.59 21.41c.39.4.86.59 1.41.59h16c.55 0 1.02-.2 1.41-.59.4-.39.59-.86.59-1.41V10c0-.55-.2-1.02-.59-1.41-.39-.4-.86-.59-1.41-.59H4c-.55 0-1.02.2-1.41.59-.4.39-.59.86-.59 1.41v10c0 .55.2 1.02.59 1.41ZM20 20H4V10h16v10Z"
          fill="currentColor"/>
</svg>
