<svg width="16" height="20" fill="none" xmlns="http://www.w3.org/2000/svg"><path fill-rule="evenodd" clip-rule="evenodd" d="M2 8a6 6 0 1 1 12 0A6 6 0 0 1 2 8Zm6-8a8 8 0 0 0-3.876 15H4v4a1 1 0 0 0 1.342.94L8 18.973l2.658.967A1 1 0 0 0 12 19v-4h-.124A8 8 0 0 0 8 0Zm2 15.748c-.64.165-1.31.252-2 .252s-1.36-.088-2-.252v1.824l1.658-.603a1 1 0 0 1 .684 0l1.658.603v-1.824Z" fill="currentColor"/><path d="m8 10.51 1.94 1.13c.37.22.83-.12.72-.55l-.51-2.2 1.69-1.46a.5.5 0 0 0-.28-.88l-2.23-.19-.88-2.06c-.17-.4-.75-.4-.92 0l-.88 2.06-2.23.19c-.44.04-.61.59-.28.88l1.69 1.46-.51 2.2c-.1.43.36.77.74.55L8 10.51Z" fill="currentColor"/></svg>
