<svg width="56" height="36" xmlns="http://www.w3.org/2000/svg"><g fill="none" fill-rule="evenodd"><path fill="#FFF" d="M55.07.035H0v35.391h55.07V.035z"/><path fill="#F7B600" d="M.917 34.584h53.236v-4.829H.917v4.829z"/><path fill="#1A1F71" d="M.917 1.043h53.236V5.87H.917V1.043zM27.076 11.729L24.27 25h-3.394l2.806-13.272h3.394zm14.279 8.57l1.786-4.985L44.17 20.3h-2.814zM45.143 25h3.138L45.54 11.729h-2.895c-.652 0-1.202.382-1.445.972l-5.093 12.3h3.564l.708-1.982h4.354l.41 1.982zm-8.86-4.333c.015-3.503-4.786-3.697-4.754-5.262.01-.476.458-.982 1.439-1.112.486-.063 1.827-.114 3.347.594l.595-2.815c-.817-.3-1.868-.587-3.175-.587-3.355 0-5.716 1.803-5.734 4.387-.022 1.91 1.686 2.976 2.97 3.612 1.323.651 1.767 1.068 1.76 1.65-.009.89-1.055 1.284-2.03 1.299-1.707.027-2.696-.467-3.485-.839l-.616 2.91c.794.367 2.258.688 3.773.704 3.567 0 5.9-1.782 5.91-4.541zm-14.057-8.94l-5.499 13.273H13.14l-2.707-10.592c-.163-.652-.307-.891-.805-1.166-.817-.449-2.164-.868-3.349-1.13l.08-.384h5.776c.735 0 1.397.495 1.566 1.352l1.43 7.68 3.53-9.032h3.565z"/></g></svg>