<svg xmlns="http://www.w3.org/2000/svg" width="1920" height="746" fill="none" viewBox="0 0 1920 746">
  <path fill="#fff" d="M799.363 343.906c-1.68 0-3.219-.56-4.618-1.819-1.259-1.398-1.819-2.937-1.819-4.615V171.44c0-1.818.56-3.357 1.819-4.616 1.399-1.259 2.938-1.818 4.618-1.818h69.544c22.388 0 39.739 5.175 52.193 15.386 12.594 10.071 18.89 24.338 18.89 42.942 0 11.889-2.798 22.1-8.395 30.352-5.597 8.393-13.433 14.687-23.228 19.163l34.982 62.804c.559.979.699 1.958.699 2.798 0 1.398-.559 2.657-1.819 3.776-.979.979-2.239 1.539-3.638 1.539h-34.002c-4.898 0-8.396-2.238-10.495-6.854l-29.105-56.23h-26.027v56.79c0 1.818-.699 3.357-2.099 4.615-1.259 1.259-2.658 1.819-4.617 1.819h-32.883Zm68.984-99.311c7.836 0 13.853-1.819 17.911-5.595 4.058-3.917 6.157-9.232 6.157-16.086 0-6.854-2.099-12.169-6.157-16.086-3.918-4.056-9.935-6.154-17.911-6.154h-29.385v43.921h29.385Zm178.833 101.829c-24.07 0-42.96-5.875-56.816-17.625-13.852-11.749-21.129-29.094-21.968-51.893-.14-4.896-.28-12.309-.28-21.961 0-9.931.14-17.344.28-22.24.839-22.52 8.255-39.724 22.248-51.893 14.136-12.309 33.026-18.464 56.536-18.464 23.5 0 42.39 6.155 56.53 18.464 14.13 12.029 21.55 29.373 22.24 51.893.28 9.931.56 17.345.56 22.24 0 4.756-.14 12.03-.56 21.961-.83 22.799-8.11 40.144-21.96 51.893-13.86 11.75-32.75 17.625-56.81 17.625Zm0-36.788c9.37 0 16.79-2.797 22.24-8.392 5.6-5.595 8.68-14.267 8.96-25.877.28-9.931.56-16.925.56-20.981 0-4.476-.14-11.47-.56-20.981-.28-11.47-3.22-20.002-8.96-25.737-5.59-5.595-13.01-8.393-22.24-8.393-9.24 0-16.66 2.798-22.25 8.393-5.46 5.595-8.4 14.267-8.96 25.877-.14 4.755-.28 11.749-.28 20.981 0 9.092.14 15.945.28 20.981.56 11.61 3.5 20.142 8.96 25.877 5.45 5.455 12.87 8.252 22.25 8.252Zm187.36 36.788c-24.35 0-43.52-5.875-57.23-17.625-13.57-11.889-20.85-29.094-21.69-51.614-.14-4.615-.28-12.029-.28-22.519 0-10.631.14-18.184.28-22.94.84-22.1 8.26-39.165 22.25-51.054 13.99-12.029 32.88-18.184 56.81-18.184 14.97 0 28.4 2.518 40.44 7.693 11.89 4.896 21.27 12.029 28.12 21.401 7 9.232 10.64 20.002 10.78 32.451v.56c0 1.398-.56 2.517-1.82 3.636-.98.84-2.24 1.259-3.64 1.259H1274c-2.24 0-3.92-.419-5.18-1.259-1.26-.979-2.24-2.797-3.08-5.315-2.38-8.672-6.15-14.687-11.19-18.184-5.18-3.636-11.9-5.455-20.15-5.455-20.15 0-30.51 11.19-31.2 33.71-.14 4.616-.28 11.61-.28 21.261 0 9.511.14 16.785.28 21.681.69 22.519 11.05 33.709 31.2 33.709 8.39 0 15.11-1.818 20.43-5.315 5.32-3.776 8.95-9.791 11.05-18.184.7-2.517 1.68-4.196 2.8-5.175 1.26-.979 2.94-1.539 5.32-1.539h34.56c1.54 0 2.8.56 3.78 1.539 1.26.979 1.68 2.238 1.54 3.777-.14 12.449-3.78 23.359-10.78 32.73-6.85 9.232-16.23 16.366-28.12 21.401-11.9 5.176-25.33 7.554-40.44 7.554Zm117.68-2.518c-1.68 0-3.22-.56-4.62-1.819-1.26-1.398-1.82-2.937-1.82-4.615V171.44c0-1.818.56-3.357 1.82-4.616 1.4-1.119 2.94-1.818 4.62-1.818h32.18c1.82 0 3.36.559 4.62 1.818 1.12 1.259 1.82 2.658 1.82 4.616v56.789l47.29-58.328c2.1-3.217 5.32-4.895 9.94-4.895h36.8c1.54 0 2.8.559 3.78 1.818.98.979 1.54 2.238 1.54 3.637 0 1.259-.28 2.238-.7 3.077l-61.29 77.211 65.91 84.904c.7.7.98 1.679.98 3.077 0 1.399-.56 2.658-1.54 3.777-.98.979-2.24 1.539-3.78 1.539h-38.06c-4.06 0-7.56-1.679-10.22-5.176l-50.65-63.083v61.824c0 1.819-.56 3.357-1.82 4.616-1.26 1.259-2.8 1.819-4.62 1.819h-32.18v-.14Zm174.63 0c-1.68 0-3.22-.56-4.62-1.819-1.26-1.398-1.82-2.937-1.82-4.615V171.44c0-1.818.56-3.357 1.82-4.616 1.4-1.259 2.94-1.818 4.62-1.818h119.36c1.82 0 3.36.559 4.62 1.818 1.25 1.259 1.81 2.658 1.81 4.616v24.059c0 1.678-.56 3.217-1.81 4.615-1.26 1.259-2.8 1.819-4.62 1.819h-81.58v34.549h75.98c1.82 0 3.36.699 4.62 2.098 1.26 1.259 1.82 2.658 1.82 4.616v22.24c0 1.678-.56 3.217-1.82 4.616-1.26 1.259-2.8 1.818-4.62 1.818h-75.98v35.528h83.54c1.82 0 3.35.56 4.61 1.819 1.26 1.259 1.82 2.657 1.82 4.616v24.058c0 1.679-.56 3.217-1.82 4.616-1.26 1.259-2.79 1.818-4.61 1.818h-121.32v-.419Zm207.79 0c-1.68 0-3.22-.56-4.62-1.819-1.25-1.398-1.81-2.937-1.81-4.615V205.15h-45.48c-1.68 0-3.22-.56-4.62-1.818-1.26-1.399-1.82-2.938-1.82-4.616V171.44c0-1.818.56-3.357 1.82-4.616 1.4-1.259 2.94-1.818 4.62-1.818h137.55c1.82 0 3.36.559 4.62 1.818 1.12 1.259 1.81 2.658 1.81 4.616v27.276c0 1.818-.55 3.357-1.81 4.616-1.26 1.258-2.8 1.818-4.62 1.818h-45.48v132.322c0 1.678-.56 3.217-1.82 4.615-1.26 1.259-2.8 1.819-4.62 1.819h-33.72ZM799.363 583.512c-1.68 0-3.219-.56-4.618-1.819-1.259-1.398-1.819-2.937-1.819-4.616V411.046c0-1.819.56-3.357 1.819-4.616 1.399-1.259 2.938-1.818 4.618-1.818h71.643c21.829 0 38.9 5.035 51.353 15.106 12.594 10.071 18.891 24.758 18.891 43.921 0 19.023-6.157 33.43-18.611 43.221-12.453 9.512-29.665 14.267-51.633 14.267h-30.365v55.95c0 1.819-.699 3.357-2.099 4.616-1.259 1.259-2.658 1.819-4.617 1.819h-34.562Zm70.383-97.633c7.557 0 13.434-1.818 17.631-5.595 4.198-3.917 6.437-9.651 6.437-17.065 0-6.994-2.099-12.589-6.157-16.645-3.918-4.196-9.935-6.434-17.911-6.434h-29.944v45.739h29.944Zm97.39 97.633c-1.679 0-3.218-.56-4.617-1.819-1.26-1.398-1.819-2.937-1.819-4.616V411.046c0-1.819.559-3.357 1.819-4.616 1.399-1.259 2.938-1.818 4.617-1.818h33.724c1.82 0 3.36.559 4.62 1.818 1.26 1.259 1.82 2.658 1.82 4.616v133.86h77.38c1.82 0 3.35.7 4.61 2.098 1.26 1.259 1.82 2.658 1.82 4.616v25.597c0 1.679-.56 3.217-1.82 4.616-1.26 1.259-2.66 1.819-4.61 1.819H967.136v-.14Zm151.124 0c-1.4 0-2.66-.56-3.78-1.539-.98-1.259-1.54-2.518-1.54-3.777 0-.979.14-1.818.28-2.238l60.03-164.073c.56-2.098 1.68-3.777 3.36-5.175 1.68-1.399 3.92-2.098 6.72-2.098h37.78c2.65 0 4.89.699 6.71 2.098 1.68 1.398 2.8 3.077 3.36 5.175l59.75 164.073.56 2.238c0 1.399-.56 2.658-1.82 3.777-.98.979-2.24 1.539-3.78 1.539h-31.48c-4.06 0-6.86-1.819-8.12-5.316l-9.93-26.016h-68.29l-9.65 26.016c-1.4 3.637-4.2 5.316-8.4 5.316h-31.76Zm107.6-68.259-23.78-67.42-23.79 67.42h47.57Zm122.44 68.259c-1.68 0-3.22-.56-4.62-1.819-1.26-1.398-1.82-2.937-1.82-4.616v-54.97l-59.33-109.383c-.56-1.538-.7-2.517-.7-2.797 0-1.399.56-2.518 1.54-3.637 1.12-1.259 2.52-1.818 4.06-1.818h31.91c3.35 0 6.43 1.818 8.95 5.315l36.52 65.881 36.8-65.881c2.1-3.637 5.04-5.315 8.96-5.315h31.9c1.54 0 2.8.559 3.78 1.818.98.979 1.54 2.238 1.54 3.637 0 .839-.14 1.818-.56 2.797l-59.33 109.383v54.97c0 1.819-.7 3.357-2.1 4.616-1.26 1.259-2.8 1.819-4.62 1.819h-32.88Z"/>
  <path fill="url(#a)" d="M689.974 374.776c-1.399 126.437-84.745 316.727-248.654 230.563 0 0-33.413 20.281-68.301 20.281-34.888 0-69.367-18.146-69.367-18.146s-50.585 33.97-110.989 11.742C132.837 596.989 47.292 511.182 60.332 347.023c7.226-90.957 64.673-221.361 170.75-219.888 80.893 1.559 116.324 59.776 116.324 59.776s-5.725-44.231-22.411-67.248c-13.382-18.46-20.566-30.217-10.672-45.899 7.909-11.909 20.849-10.311 34.151-8.539 12.1 1.612 25.232 3.46 41.62 1.067 16.388-2.394 31.708-2.677 39.485 9.607 7.779 12.283 1.343 25.79-5.336 39.495-6.677 13.703-16.503 34.452-22.411 66.18 0 0 44.359-66.687 135.535-51.236 99.931 16.829 153.98 120.326 152.607 244.438ZM252.426 224.271c-41.131 17.602-67.286 84.753-30.948 117.416 33.702 30.143 89.773 22.195 106.718-35.226 17.063-57.42-34.638-99.322-75.77-82.19Zm124.861 115.281-37.35 72.585 61.895-2.135-24.545-70.45Zm112.056-112.079c-42.215 9.466-60.253 52.54-54.427 85.393 6.345 32.854 47.704 63.373 98.182 21.348 51.216-42.023 19.563-120.941-43.755-106.741Zm113.122 103.54c-10.461 40.85-48.036 75.253-98.269 97.557l7.558 25.195-28.814 11.743-11.619-24.209c-10.547 3.452-21.208 6.477-32.597 9.011l6.864 33.343-44.822 6.405-5.893-32.415c-5.483.6-10.991 1.091-16.518 1.461-5.155.342-10.189.524-15.152.613-.61 6.637-3.876 30.855-4.057 31.409-.212.641-33.083-2.135-33.083-2.135l-1.95-31.187a265.088 265.088 0 0 1-14.347-2.102l-13.585 30.086-27.747-8.539 8.2-29.731a240.264 240.264 0 0 1-13.361-4.727l-7.645 24.852-33.083-14.944 12.967-22.904c-65.791-35.925-93.006-91.311-93.006-91.311 10.806 115.782 69.88 174.653 129.049 201.522l17.155-28.6 35.218 13.877-9.389 29.116c17.116 3.836 33.152 5.291 46.74 5.041.511-.008 1.012-.026 1.521-.037l-3.654-31.985h29.881l7.272 30.006c16.582-1.649 31.838-4.237 45.885-7.611l-12.605-32.002 36.285-9.606 12.455 30.253c142.219-56.546 124.146-207.445 124.146-207.445Z"/>
  <defs>
    <linearGradient id="a" x1="59" x2="690" y1="64" y2="64" gradientUnits="userSpaceOnUse">
      <stop stop-color="#FFC207"/>
      <stop offset="1" stop-color="#FFEB3A"/>
    </linearGradient>
  </defs>
</svg>
