<svg width="746" height="746" viewBox="0 0 746 746" fill="none" xmlns="http://www.w3.org/2000/svg">
<path d="M687.974 374.776C686.575 501.213 603.229 691.503 439.32 605.339C439.32 605.339 405.907 625.62 371.019 625.62C336.131 625.62 301.652 607.474 301.652 607.474C301.652 607.474 251.067 641.444 190.663 619.216C130.837 596.989 45.292 511.182 58.332 347.023C65.558 256.066 123.005 125.662 229.082 127.135C309.975 128.694 345.406 186.911 345.406 186.911C345.406 186.911 339.681 142.68 322.995 119.663C309.613 101.203 302.429 89.4458 312.323 73.7643C320.232 61.8551 333.172 63.453 346.474 65.225C358.574 66.8368 371.706 68.6855 388.094 66.2924C404.482 63.8982 419.802 63.6153 427.579 75.8992C435.358 88.182 428.922 101.689 422.243 115.394C415.566 129.097 405.74 149.846 399.832 181.574C399.832 181.574 444.191 114.887 535.367 130.338C635.298 147.167 689.347 250.664 687.974 374.776ZM250.426 224.271C209.295 241.873 183.14 309.024 219.478 341.687C253.18 371.83 309.251 363.882 326.196 306.461C343.259 249.041 291.558 207.139 250.426 224.271ZM375.287 339.552L337.937 412.137L399.832 410.002L375.287 339.552ZM487.343 227.473C445.128 236.939 427.09 280.013 432.916 312.866C439.261 345.72 480.62 376.239 531.098 334.214C582.314 292.191 550.661 213.273 487.343 227.473ZM600.465 331.013C590.004 371.863 552.429 406.266 502.196 428.57L509.754 453.765L480.94 465.508L469.321 441.299C458.774 444.751 448.113 447.776 436.724 450.31L443.588 483.653L398.766 490.058L392.873 457.643C387.39 458.243 381.882 458.734 376.355 459.104C371.2 459.446 366.166 459.628 361.203 459.717C360.593 466.354 357.327 490.572 357.146 491.126C356.934 491.767 324.063 488.991 324.063 488.991L322.113 457.804C317.226 457.216 312.433 456.525 307.766 455.702L294.181 485.788L266.434 477.249L274.634 447.518C270.055 446.043 265.593 444.47 261.273 442.791L253.628 467.643L220.545 452.699L233.512 429.795C167.721 393.87 140.506 338.484 140.506 338.484C151.312 454.266 210.386 513.137 269.555 540.006L286.71 511.406L321.928 525.283L312.539 554.399C329.655 558.235 345.691 559.69 359.279 559.44C359.79 559.432 360.291 559.414 360.8 559.403L357.146 527.418H387.027L394.299 557.424C410.881 555.775 426.137 553.187 440.184 549.813L427.579 517.811L463.864 508.205L476.319 538.458C618.538 481.912 600.465 331.013 600.465 331.013Z" fill="url(#paint0_linear_10128_209271)"/>
<defs>
<linearGradient id="paint0_linear_10128_209271" x1="57" y1="64" x2="688" y2="64" gradientUnits="userSpaceOnUse">
<stop stop-color="#FFC207"/>
<stop offset="1" stop-color="#FFEB3A"/>
</linearGradient>
</defs>
</svg>
