<svg fill="none" xmlns="http://www.w3.org/2000/svg" viewBox="0 0 48 48"><rect x="20" y="39" width="8" height="3" rx="1.5" fill="url(#a)"/><path fill-rule="evenodd" clip-rule="evenodd" d="M27.383 23.342c.952.655 2.756 2.603-.027 6.98 0 0-1.338-.632-2.138-2.44A8.577 8.577 0 0 1 24.01 29l-.01-.008a9.85 9.85 0 0 1-1.172-1.175c-.797 1.858-2.167 2.504-2.167 2.504-2.776-4.366-.987-6.315-.033-6.974.156-.108.29-.181.378-.225a8.674 8.674 0 0 1 .009-.817C21.242 18.37 24.01 15 24.01 15s2.636 3.464 2.958 7.32c.022.264.033.53.032.796a3.1 3.1 0 0 1 .383.226Zm4.003-3.198A9 9 0 1 0 15 15c0 1.913.597 3.686 1.614 5.144A9 9 0 1 0 24 29a9 9 0 1 0 7.386-8.856Z" fill="url(#b)"/><defs><linearGradient id="a" x1="28" y1="40.5" x2="20" y2="40.5" gradientUnits="userSpaceOnUse"><stop stop-color="#FFEB3B"/><stop offset="1" stop-color="#FFC107"/></linearGradient><linearGradient id="b" x1="42" y1="22" x2="6" y2="22" gradientUnits="userSpaceOnUse"><stop stop-color="#FFEB3B"/><stop offset="1" stop-color="#FFC107"/></linearGradient></defs></svg>