<svg fill="none" xmlns="http://www.w3.org/2000/svg" viewBox="0 0 136 48"><rect x="18" y="39" width="8" height="3" rx="1.5" fill="url(#a)"/><path fill-rule="evenodd" clip-rule="evenodd" d="M25.383 23.342c.952.655 2.756 2.603-.027 6.98 0 0-1.338-.632-2.138-2.44A8.577 8.577 0 0 1 22.01 29l-.01-.008a9.85 9.85 0 0 1-1.172-1.175c-.797 1.858-2.167 2.504-2.167 2.504-2.776-4.366-.987-6.315-.033-6.974.156-.108.29-.181.378-.225a8.674 8.674 0 0 1 .009-.817C19.242 18.37 22.01 15 22.01 15s2.636 3.464 2.958 7.32c.022.264.033.53.032.796a3.1 3.1 0 0 1 .383.226Zm4.003-3.198A9 9 0 1 0 13 15c0 1.913.597 3.686 1.614 5.144A9 9 0 1 0 22 29a9 9 0 1 0 7.386-8.856Z" fill="url(#b)"/><path d="M48.498 21.79a.522.522 0 0 1-.357-.138.502.502 0 0 1-.141-.35V8.69c0-.139.043-.255.14-.351a.522.522 0 0 1 .358-.138h5.382c1.732 0 3.075.393 4.039 1.169.974.764 1.462 1.848 1.462 3.261 0 .903-.217 1.679-.65 2.306-.433.637-1.04 1.115-1.798 1.455l2.708 4.77a.413.413 0 0 1 .054.213.369.369 0 0 1-.141.287.397.397 0 0 1-.282.116h-2.631c-.379 0-.65-.17-.812-.52l-2.252-4.271h-2.014v4.314a.45.45 0 0 1-.163.35.47.47 0 0 1-.357.138h-2.545Zm5.339-7.543c.606 0 1.071-.138 1.385-.425.314-.297.477-.701.477-1.222 0-.52-.163-.924-.477-1.221-.303-.309-.768-.468-1.386-.468h-2.273v3.336h2.273Zm13.838 7.734c-1.862 0-3.324-.446-4.396-1.338-1.072-.893-1.635-2.21-1.7-3.942-.011-.372-.022-.935-.022-1.668 0-.754.01-1.317.022-1.689.065-1.71.639-3.017 1.721-3.942C64.394 8.467 65.856 8 67.675 8c1.82 0 3.281.467 4.375 1.402 1.094.914 1.667 2.232 1.722 3.942.021.754.043 1.317.043 1.69 0 .36-.011.913-.043 1.667-.066 1.732-.629 3.05-1.7 3.942-1.073.892-2.534 1.338-4.397 1.338Zm0-2.794c.726 0 1.3-.212 1.722-.637.433-.425.671-1.084.693-1.966.022-.754.043-1.285.043-1.593 0-.34-.01-.871-.043-1.594-.022-.871-.25-1.52-.693-1.955-.433-.425-1.007-.637-1.722-.637-.715 0-1.288.212-1.722.637-.422.425-.65 1.084-.693 1.966-.01.36-.021.892-.021 1.593 0 .69.01 1.211.021 1.594.044.882.271 1.53.693 1.965.423.415.997.627 1.722.627Zm14.5 2.794c-1.885 0-3.368-.446-4.43-1.338-1.05-.903-1.613-2.21-1.678-3.92-.01-.351-.021-.914-.021-1.711 0-.808.01-1.381.021-1.742.065-1.679.639-2.975 1.722-3.878 1.083-.914 2.544-1.381 4.396-1.381 1.159 0 2.198.19 3.13.584.92.372 1.645.914 2.176 1.625.541.702.823 1.52.834 2.465v.043c0 .106-.044.191-.14.276a.43.43 0 0 1-.282.096h-2.675c-.173 0-.303-.032-.4-.096-.098-.074-.174-.213-.239-.404-.184-.658-.476-1.115-.866-1.38-.4-.277-.92-.415-1.56-.415-1.559 0-2.36.85-2.414 2.56-.011.35-.022.882-.022 1.615 0 .723.011 1.275.022 1.647.054 1.71.855 2.56 2.415 2.56.65 0 1.169-.138 1.58-.404.412-.286.694-.743.856-1.38.054-.192.13-.32.217-.394.097-.074.227-.117.41-.117h2.675c.12 0 .217.043.293.117.097.075.13.17.119.287-.01.946-.292 1.774-.834 2.486-.53.701-1.256 1.243-2.176 1.626-.92.393-1.96.573-3.13.573Zm9.106-.19a.522.522 0 0 1-.357-.139.502.502 0 0 1-.141-.35V8.69c0-.139.043-.255.14-.351a.578.578 0 0 1 .358-.138h2.49c.141 0 .26.042.358.138.087.096.14.202.14.35v4.314l3.66-4.43c.163-.245.412-.372.77-.372h2.847c.119 0 .217.042.293.138.075.074.119.17.119.276 0 .096-.022.17-.054.234l-4.743 5.864 5.1 6.45c.054.052.076.127.076.233a.43.43 0 0 1-.119.287.406.406 0 0 1-.293.117H98.98a.962.962 0 0 1-.79-.393l-3.92-4.792v4.696a.468.468 0 0 1-.141.35.487.487 0 0 1-.358.139h-2.49v-.01Zm13.514 0a.525.525 0 0 1-.358-.139.503.503 0 0 1-.14-.35V8.69c0-.139.043-.255.14-.351a.525.525 0 0 1 .358-.138h9.236c.141 0 .26.042.358.138a.454.454 0 0 1 .141.35v1.828a.504.504 0 0 1-.141.35.488.488 0 0 1-.358.139h-6.313v2.624h5.88c.141 0 .26.053.358.16.097.095.14.201.14.35v1.689a.503.503 0 0 1-.14.35.488.488 0 0 1-.358.139h-5.88v2.698h6.465c.141 0 .26.043.357.138a.45.45 0 0 1 .141.351v1.827a.5.5 0 0 1-.141.35.485.485 0 0 1-.357.139h-9.388v-.032Zm16.08 0a.52.52 0 0 1-.357-.139.5.5 0 0 1-.141-.35V11.25h-3.519a.525.525 0 0 1-.358-.138.503.503 0 0 1-.14-.35V8.69c0-.139.043-.255.14-.351a.525.525 0 0 1 .358-.138h10.644c.141 0 .26.042.357.138a.492.492 0 0 1 .141.35v2.072a.466.466 0 0 1-.141.35.485.485 0 0 1-.357.139h-3.519v10.05a.504.504 0 0 1-.141.351.488.488 0 0 1-.357.138h-2.61ZM48.498 39.988a.522.522 0 0 1-.357-.138.502.502 0 0 1-.141-.35V26.89c0-.138.043-.255.14-.35a.522.522 0 0 1 .358-.139h5.544c1.69 0 3.01.383 3.974 1.148.975.764 1.462 1.88 1.462 3.335 0 1.445-.476 2.54-1.44 3.283-.964.723-2.296 1.084-3.996 1.084h-2.35v4.25a.45.45 0 0 1-.162.35.47.47 0 0 1-.357.138h-2.675Zm5.447-7.415c.584 0 1.04-.138 1.364-.425.325-.298.498-.733.498-1.296 0-.532-.162-.957-.476-1.265-.303-.318-.769-.488-1.386-.488h-2.318v3.474h2.318Zm7.536 7.415a.522.522 0 0 1-.357-.138.502.502 0 0 1-.14-.35V26.89c0-.138.042-.255.14-.35a.522.522 0 0 1 .357-.139h2.61c.14 0 .26.043.357.138.098.096.141.202.141.35v10.168h5.988c.14 0 .26.053.358.16.097.095.14.201.14.35v1.944a.502.502 0 0 1-.14.35.47.47 0 0 1-.358.139h-9.096v-.01Zm11.695 0a.443.443 0 0 1-.292-.116.47.47 0 0 1-.098-.457l4.645-12.462a.749.749 0 0 1 .26-.394c.13-.106.304-.159.52-.159h2.924c.206 0 .379.053.52.16a.75.75 0 0 1 .26.392l4.623 12.463.044.17a.368.368 0 0 1-.141.287.404.404 0 0 1-.293.116h-2.436c-.314 0-.53-.138-.628-.403l-.769-1.976h-5.284l-.747 1.976c-.109.276-.325.403-.65.403h-2.458Zm8.327-5.184-1.84-5.121-1.842 5.12h3.682Zm9.475 5.184a.522.522 0 0 1-.357-.138.502.502 0 0 1-.141-.35v-4.176l-4.592-8.308a.77.77 0 0 1-.054-.212.4.4 0 0 1 .12-.276.409.409 0 0 1 .314-.139h2.468c.26 0 .498.139.693.404l2.826 5.004 2.848-5.004c.163-.276.39-.404.693-.404h2.47c.118 0 .216.043.292.139.075.074.119.17.119.276 0 .064-.011.138-.044.212l-4.59 8.308v4.176a.45.45 0 0 1-.163.35.487.487 0 0 1-.358.138h-2.544Z" fill="#fff"/><defs><linearGradient id="a" x1="26" y1="40.5" x2="18" y2="40.5" gradientUnits="userSpaceOnUse"><stop stop-color="#FFEB3B"/><stop offset="1" stop-color="#FFC107"/></linearGradient><linearGradient id="b" x1="40" y1="22" x2="4" y2="22" gradientUnits="userSpaceOnUse"><stop stop-color="#FFEB3B"/><stop offset="1" stop-color="#FFC107"/></linearGradient></defs></svg>