<svg fill="none" xmlns="http://www.w3.org/2000/svg" viewBox="0 0 32 32">
    <path fill-rule="evenodd" clip-rule="evenodd"
          d="M16 18.67c-.74 0-1.33-.6-1.33-1.34v-4a1.33 1.33 0 0 1 2.66 0v4c0 .74-.6 1.34-1.33 1.34Zm10.64 6.42L16.11 6.73a.2.2 0 0 0-.03-.04l-.02-.01a.13.13 0 0 0-.06-.01l-.06.01-.02.01-.03.04L5.36 25.1c-.03.05-.03.07-.03.09l.03.08c.02.04.04.06.05.06h.02l.04.01H26.59l.05-.07a.2.2 0 0 0 .03-.08c0-.02 0-.04-.03-.09Zm2.31-1.32L18.42 5.4a2.78 2.78 0 0 0-4.84 0L3.05 23.77A2.82 2.82 0 0 0 5.47 28h21.06c2.16 0 3.5-2.36 2.42-4.23Z"
          fill="currentColor"/>
    <path d="M17.33 22a1.33 1.33 0 1 1-2.66 0 1.33 1.33 0 0 1 2.66 0Z" fill="currentColor"/>
</svg>
