<svg width="17" height="16" fill="none" xmlns="http://www.w3.org/2000/svg"><g clip-path="url(#a)"><path fill-rule="evenodd" clip-rule="evenodd" d="M11.764 6.736c-.104.161-.21.34-.297.518l-.04.083c-.038.082-.078.163-.117.273-.21.42-.385.858-.525 1.31a6.276 6.276 0 0 0-.245 1.02l-.052.34a8.67 8.67 0 0 0-.07.697c-.018.13-.018.242-.018.356v.502c0 .08.005.165.009.25.004.085.009.17.009.251v.098c0 .064 0 .129-.018.194-.009.016-.013.032-.017.048-.005.016-.009.033-.018.049a.256.256 0 0 1-.07.113.534.534 0 0 1-.227.146c-.009 0-.022.004-.035.008a.142.142 0 0 1-.035.008H6.255c-.088-.016-.14-.032-.193-.08a.159.159 0 0 0-.025-.034c-.014-.015-.027-.028-.027-.048 0-.016-.005-.032-.009-.048-.004-.017-.009-.033-.009-.049v-.55c.018-.421.07-.842.175-1.263a4.16 4.16 0 0 1 .21-.785c.018-.053.035-.105.053-.154.017-.048.039-.101.06-.154.023-.052.045-.105.062-.153.018-.081.053-.146.087-.21.053-.13.123-.26.21-.39.21-.323.438-.614.718-.89.192-.194.402-.372.63-.55.04-.03.077-.06.113-.09.04-.032.076-.062.114-.088l.052-.049c-.157 0-.297-.016-.437-.032-.079-.008-.158-.024-.236-.04-.079-.017-.158-.033-.236-.04a4.798 4.798 0 0 1-.551-.098c-.027-.004-.053-.008-.08-.016a.545.545 0 0 0-.078-.016.543.543 0 0 1-.079-.017c-.07-.021-.14-.028-.21-.035a2.071 2.071 0 0 1-.104-.013h-.088a.876.876 0 0 0-.297.048.363.363 0 0 0-.14.065.747.747 0 0 0-.123.097.438.438 0 0 0-.087.097c-.027.025-.043.06-.057.089a.65.65 0 0 1-.013.025.68.68 0 0 0-.088.243 1.734 1.734 0 0 0-.052.42c0 .065-.017.13-.052.178a.271.271 0 0 1-.14.098c-.035.016-.088.016-.14.016h-.543c-.157 0-.297-.065-.367-.178a.084.084 0 0 1-.02-.034.304.304 0 0 0-.015-.031c-.017-.049-.035-.097-.035-.162V4.55c0-.08.018-.162.053-.226.008-.008.017-.02.026-.033a.227.227 0 0 1 .026-.032.271.271 0 0 1 .14-.097.47.47 0 0 0 .025-.013.121.121 0 0 1 .063-.02c.017-.016.052-.016.087-.016H5.31s.018.016.035.016a.132.132 0 0 1 .07.065c.035.033.07.081.088.114.052.08.14.13.227.13.017 0 .03-.005.044-.009a.138.138 0 0 1 .043-.008c.062-.016.123-.037.184-.057.061-.02.122-.04.184-.056a2.93 2.93 0 0 1 .35-.114c.35-.097.7-.162 1.067-.194h.244c.105 0 .21 0 .315.016.105 0 .21.016.315.033.21.032.402.064.612.113.192.054.396.098.592.139l.108.023.35.073.35.072c.026 0 .052.004.078.009.027.004.053.008.08.008.016 0 .031.001.047.003a.382.382 0 0 0 .127-.003c.053 0 .105.004.157.008.053.004.105.008.158.008h.035a.824.824 0 0 0 .455-.13c.035-.016.087-.064.122-.097 0-.016.035-.032.035-.032l.035-.033a.428.428 0 0 1 .192-.097h.14c.07.016.14.049.193.097.087.065.157.13.245.21.035.041.074.078.113.114.04.037.08.073.114.113.07.065.088.179.053.276a2.37 2.37 0 0 1-.158.291c-.09.118-.17.245-.247.368l-.085.134c-.21.34-.42.68-.613 1.02Zm-9.06 1.36a24.41 24.41 0 0 0-.49-.098.602.602 0 0 0-.49.162.695.695 0 0 0-.174.356l-.006.038c-.016.098-.03.185-.03.286 0 .146-.087.227-.244.227H.832C.64 9.067.5 8.937.5 8.759V6.072a.29.29 0 0 1 .087-.227.33.33 0 0 1 .245-.097h.473c.052 0 .087.033.122.065a.35.35 0 0 1 .053.08c.07.082.14.114.244.098.088-.016.175-.049.263-.08.35-.114.717-.195 1.084-.228.14-.016.298-.016.438 0V8.08c0 .065 0 .113.017.162-.017 0-.035-.004-.052-.008a.235.235 0 0 0-.053-.008c-.227-.033-.472-.081-.717-.13Zm2.188 1.019h.192l.14.016c.157 0 .28-.016.402-.065a7.553 7.553 0 0 0-.297 1.117 5.53 5.53 0 0 0-.105 1.069c0 .13.004.255.009.38.004.126.008.251.008.38 0 .098 0 .195-.035.292a.367.367 0 0 1-.332.21H2.198c-.029 0-.058-.005-.084-.009-.021-.004-.04-.007-.056-.007-.122-.016-.21-.08-.21-.194v-.421c.018-.34.07-.647.14-.971l.049-.185c.068-.262.135-.521.248-.77.193-.421.455-.793.787-1.133.117-.12.244-.223.373-.327l.135-.11c.157.437.56.728 1.084.728h.228Zm11.543-2.946-.368-.34a.314.314 0 0 0-.402 0 .246.246 0 0 1-.035.024.246.246 0 0 0-.035.025.557.557 0 0 1-.472.178c-.158 0-.315-.016-.473-.049-.367-.065-.717-.146-1.067-.226-.07-.017-.135-.029-.2-.041-.066-.012-.132-.024-.202-.04-.402.598-.77 1.214-1.102 1.829a6.61 6.61 0 0 0-.245.502l.263.048c.245.049.49.097.717.13.052.008.11.012.166.016.057.004.114.008.166.016-.017.016-.035.032-.052.032a5.092 5.092 0 0 0-.648.55c-.332.34-.594.713-.787 1.134a4.65 4.65 0 0 0-.248.77 18.77 18.77 0 0 1-.05.185c-.069.323-.122.631-.139.971v.42c0 .114.088.179.21.195.016 0 .035.003.056.007.026.004.055.01.084.01h2.676c.158 0 .28-.098.332-.211.035-.097.035-.194.035-.292 0-.129-.004-.254-.008-.38-.005-.125-.01-.25-.01-.38 0-.356.036-.713.106-1.069a6.84 6.84 0 0 1 .7-2.023c.28-.534.612-1.052.944-1.554.04-.049.07-.107.097-.16.009-.018.017-.035.026-.05.052-.098.035-.178-.035-.227Z" fill="#fff"/></g><defs><clipPath id="a"><path fill="#fff" transform="translate(.5)" d="M0 0h16v16H0z"/></clipPath></defs></svg>