<svg width="24" height="24" viewBox="0 0 24 24" fill="none" xmlns="http://www.w3.org/2000/svg">
<path d="M11.6748 20.9233L10.7503 20.0137C9.48186 18.7656 9.49261 16.7348 10.7718 15.5079L11.6748 14.6405C11.2556 14.5982 10.9438 14.5771 10.5998 14.5771C7.72964 14.5771 2 15.9944 2 18.8079V19.8656C2 20.4498 2.48128 20.9233 3.07498 20.9233H11.6748ZM10.5998 12.4617C12.9755 12.4617 14.8998 10.5684 14.8998 8.23083C14.8998 5.8933 12.9755 4 10.5998 4C8.22413 4 6.29992 5.8933 6.29992 8.23083C6.29992 10.5684 8.22413 12.4617 10.5998 12.4617Z" fill="white"/>
<path d="M16.1682 20.6906C15.749 21.1031 15.061 21.1031 14.6418 20.6906L12.4166 18.48C12.0081 18.0675 12.0081 17.4117 12.4166 17.0098L12.4273 16.9992C12.8465 16.5867 13.5238 16.5867 13.9323 16.9992L15.405 18.4483L20.1672 13.7309C20.5864 13.3184 21.2636 13.3184 21.6829 13.7309L21.6936 13.7415C22.1021 14.154 22.1021 14.8098 21.6936 15.2117L16.1682 20.6906Z" fill="white"/>
</svg>
