<svg width="24" height="24" viewBox="0 0 24 24" fill="none" xmlns="http://www.w3.org/2000/svg">
<path fill-rule="evenodd" clip-rule="evenodd" d="M9.61286 2H13.39C13.9094 2 14.3343 2.42857 14.3343 2.95238C14.3343 3.47619 13.9094 3.90476 13.39 3.90476H9.61286C9.0935 3.90476 8.66857 3.47619 8.66857 2.95238C8.66857 2.42857 9.0935 2 9.61286 2ZM18.848 7.37143L18.1398 8.08571C19.3012 9.55238 20 11.4095 20 13.4286C20 18.1619 16.204 22 11.5014 22C6.72335 22 2.8801 18.0381 3.00286 13.2C3.11618 8.62857 6.96886 4.85714 11.5014 4.85714C13.5033 4.85714 15.3447 5.5619 16.8083 6.74286L17.5165 6.02857C17.8848 5.66667 18.4703 5.65714 18.8385 6.02857L18.848 6.03809C19.2162 6.40952 19.2068 7.00952 18.848 7.37143ZM11.5023 14.381C12.0216 14.381 12.4465 13.9524 12.4465 13.4286V9.61905C12.4465 9.09524 12.0216 8.66667 11.5023 8.66667C10.9829 8.66667 10.558 9.09524 10.558 9.61905V13.4286C10.558 13.9524 10.9829 14.381 11.5023 14.381Z" fill="white"/>
</svg>
